<svg viewBox="0 0 1000 1000" xmlns="http://www.w3.org/2000/svg"><defs><linearGradient id="b" gradientTransform="rotate(45 .5 .5)"><stop offset="0%" stop-color="#2D4DE0"/><stop offset="33.333%" stop-color="#9F71F0"/><stop offset="66.667%" stop-color="#fc6277"/><stop offset="100%" stop-color="#F8EF6F"/></linearGradient><clipPath id="a"><path fill="currentColor" d="M796.5 600Q775 700 686 749.5t-212.5 131Q350 962 242 864T137 633q3-133 11-258t120-184q112-59 229-50t190 89.5q73 80.5 102 175t7.5 194.5Z"/></clipPath></defs><g clip-path="url(#a)"><path fill="url(#b)" d="M796.5 600Q775 700 686 749.5t-212.5 131Q350 962 242 864T137 633q3-133 11-258t120-184q112-59 229-50t190 89.5q73 80.5 102 175t7.5 194.5Z"/></g></svg>