<svg width="691" height="711" viewBox="0 0 691 711" fill="none" xmlns="http://www.w3.org/2000/svg">
<rect x="397" y="540" width="133" height="133" rx="20" fill="#222222" fill-opacity="0.35"/>
<rect x="398" y="541" width="131" height="131" rx="19" stroke="#FCFAFF" stroke-opacity="0.25" stroke-width="2"/>
<path d="M473.378 596.522C467.398 596.522 464.426 599.644 464.426 604.139C464.426 607.033 465.873 609.083 467.788 610.021C466.85 610.881 466.069 611.634 465.365 612.376C464.66 613.119 464.23 613.905 464.23 614.766C464.23 615.822 464.66 616.801 465.951 617.346C464.583 618.638 463.8 619.576 463.8 621.336C463.8 624.424 466.498 626.223 473.574 626.223C480.377 626.223 484.325 623.684 484.325 619.187C484.325 613.989 480.338 613.793 473.574 613.362L469.743 613.127L471.034 611.055C471.736 611.251 472.871 611.407 474.123 611.407C479.048 611.407 482.45 608.866 482.45 604.526C482.45 602.727 481.562 601.477 480.859 600.577L484.312 600.303V596.844H476.976C476.077 596.844 475.059 596.522 473.378 596.522ZM475.137 618.796C477.016 618.913 478.502 618.991 478.502 620.244C478.502 622.353 475.412 622.512 473.145 622.512C470.408 622.512 468.414 622.041 468.414 620.478C468.414 619.695 468.922 619.031 469.431 618.406L475.137 618.796ZM473.615 607.302C471.034 607.302 469.978 605.972 469.978 604.057C469.978 601.516 471.58 600.459 473.731 600.459C475.959 600.459 477.289 601.672 477.289 603.978C477.289 606.012 475.803 607.302 473.615 607.302ZM491.479 593.473C493.746 593.473 495.037 592.182 495.037 589.952C495.037 587.726 493.746 586.512 491.479 586.512C489.25 586.512 487.959 587.726 487.959 589.952C487.959 592.181 489.25 593.473 491.479 593.473ZM494.469 612.824V596.844H486.865L486.435 599.887L488.519 600.57C488.911 600.687 489 600.901 489 601.33V612.824C489 613.412 488.67 613.529 488.123 613.608L485.875 613.881V617.156H497.594V613.881L495.347 613.608C494.759 613.529 494.469 613.452 494.469 612.824ZM511.983 612.012C511.044 612.363 509.927 612.636 508.83 612.636C506.72 612.636 506.187 611.737 506.187 609.43V599.969H511.656V596.062H506.47C506.157 596.062 506.187 596.06 506.187 595.787V590.594H502.443C502.013 594.5 499.937 596.216 496.812 596.608V599.969H499.94C500.253 599.969 499.937 600.244 499.937 600.478V610.721C499.937 615.141 501.855 617.016 506.506 617.016C508.736 617.016 511.277 616.273 512.959 615.453L511.983 612.012ZM437.233 587.317C436.988 587.072 436.697 586.878 436.377 586.746C436.057 586.613 435.715 586.545 435.368 586.545C435.022 586.545 434.679 586.613 434.359 586.746C434.039 586.878 433.749 587.072 433.504 587.317L429.792 591.029L434.501 595.737C435.056 595.548 435.653 595.519 436.224 595.653C436.795 595.787 437.317 596.079 437.731 596.495C438.144 596.911 438.432 597.435 438.562 598.007C438.692 598.579 438.659 599.176 438.466 599.73L443.005 604.268C443.675 604.035 444.405 604.036 445.075 604.272C445.745 604.508 446.315 604.964 446.691 605.566C447.068 606.168 447.229 606.88 447.148 607.586C447.067 608.291 446.749 608.948 446.246 609.449C445.955 609.741 445.609 609.972 445.228 610.13C444.848 610.288 444.439 610.369 444.027 610.369C443.615 610.369 443.207 610.288 442.826 610.13C442.446 609.972 442.1 609.741 441.809 609.449C440.887 608.527 440.54 607.173 441.008 606.037L436.656 601.805V612.943C436.656 613.091 437.355 613.287 437.605 613.536C438.83 614.761 438.889 616.747 437.663 617.974C437.375 618.265 437.031 618.496 436.653 618.654C436.275 618.812 435.869 618.893 435.459 618.893C435.05 618.893 434.644 618.812 434.266 618.654C433.887 618.496 433.544 618.265 433.255 617.974C432.03 616.747 432.045 614.762 433.271 613.536C433.574 613.234 433.531 613.005 434.312 612.852V601.61C433.531 601.457 433.588 601.23 433.286 600.926C432.846 600.486 432.546 599.924 432.426 599.314C432.306 598.703 432.37 598.07 432.61 597.496L427.968 592.853L415.711 605.11C415.466 605.355 415.271 605.646 415.139 605.966C415.006 606.286 414.938 606.629 414.938 606.975C414.938 607.321 415.006 607.664 415.139 607.984C415.271 608.304 415.466 608.595 415.711 608.84L433.587 626.716C434.082 627.21 434.753 627.487 435.452 627.487C436.151 627.487 436.822 627.21 437.316 626.716L455.109 608.922C455.604 608.427 455.881 607.756 455.881 607.057C455.881 606.358 455.604 605.687 455.109 605.192L437.233 587.317Z" fill="#FCFAFF"/>
<rect x="416" y="67" width="123" height="123" rx="20" fill="#222222" fill-opacity="0.35"/>
<rect x="417" y="68" width="121" height="121" rx="19" stroke="#FCFAFF" stroke-opacity="0.25" stroke-width="2"/>
<path d="M445.934 101.507L451.764 166.889L477.923 174.15L504.155 166.88L509.991 101.507H445.934ZM495.938 137.985L494.241 153.802L494.247 155.157L477.962 159.705L477.949 159.717L461.535 155.219L460.424 142.69H468.474L469.045 149.024L477.965 151.404L477.962 151.415V151.392L486.917 148.867L487.862 138.355H469.144L468.984 136.654L468.618 132.574L468.427 130.407H488.575L489.307 122.46H458.62L458.459 120.589L458.093 116.233L457.902 113.79H498.071L497.878 116.199L495.938 137.985ZM496.025 93.1072L490.86 87.0569H496.025V83.4443H484.465V86.5966L490.527 92.1144H484.465V95.727H496.025V93.1072ZM482.297 93.1072L477.379 87.0569H482.297V83.4443H471.46V86.5966L477.047 92.1144H471.46V95.727H482.297V93.1072ZM469.292 92.1144H463.512V87.0569H469.292V83.4443H459.177V95.727H469.292V92.1144Z" fill="#FCFAFF"/>
<rect x="37" y="57" width="133" height="133" rx="20" fill="#222222" fill-opacity="0.35"/>
<rect x="38" y="58" width="131" height="131" rx="19" stroke="#FCFAFF" stroke-opacity="0.25" stroke-width="2"/>
<path d="M69.2883 95.0938L75.6063 165.343L103.957 172.907L132.387 165.486L138.712 95.0938H69.2883ZM125.57 111.087L125.174 115.645L125 117.75H91.743L92.5375 127.125H124.209L123.998 128.868L121.955 151.453L121.805 152.773L104 157.566V157.562L103.979 157.571L86.1844 152.949L84.9766 139.625H93.7016L94.3195 146.234L103.995 148.687L104 148.504V148.513L113.697 146.444L114.709 135.719H84.5883L82.4523 111.628L82.2438 109.156H125.778L125.57 111.087ZM75.8406 75.2711H80.2328V79.6117H84.2516V75.2711H88.6445V88.4133H84.2516V84.0125H80.2336V88.4133H75.8406V75.2711ZM94.4203 79.6297H90.5531V75.2711H102.682V79.6297H98.8133V88.4133H94.4203V79.6297ZM104.607 75.2711H109.187L112.005 79.8891L114.82 75.2711H119.402V88.4133H115.026V81.8992L112.005 86.5719H111.928L108.905 81.8992V88.4133H104.606L104.607 75.2711ZM121.588 75.2711H125.982V84.0696H132.159V88.4141H121.588V75.2711Z" fill="#FCFAFF"/>
<rect x="75" y="540" width="95" height="95" rx="20" fill="#222222" fill-opacity="0.35"/>
<rect x="76" y="541" width="93" height="93" rx="19" stroke="#FCFAFF" stroke-opacity="0.25" stroke-width="2"/>
<path fill-rule="evenodd" clip-rule="evenodd" d="M122.527 608.069C123.527 608.896 124.7 609.248 125.965 609.314C126.489 609.341 127.027 609.315 127.542 609.222C128.359 609.073 129.174 608.887 129.969 608.647C131.587 608.159 132.985 607.315 134.03 605.953C134.624 605.176 135.113 604.336 135.426 603.407C135.685 602.641 135.929 601.867 136.122 601.083C136.275 600.465 136.351 599.828 136.444 599.196C136.506 598.779 136.543 598.357 136.581 597.936C136.644 597.252 136.709 596.57 136.754 595.884C136.786 595.408 136.785 594.929 136.804 594.452C136.81 594.306 136.833 594.162 136.847 594.017C136.859 593.883 136.927 593.836 137.064 593.839C137.546 593.846 138.03 593.858 138.511 593.836C139.051 593.812 139.594 593.789 140.126 593.7C140.882 593.574 141.632 593.414 142.373 593.22C143.248 592.991 144.051 592.581 144.825 592.114C145.724 591.57 146.546 590.932 147.21 590.11C147.79 589.395 148.065 588.566 147.925 587.661C147.722 586.347 146.617 585.486 145.333 585.427C144.868 585.406 144.396 585.455 143.932 585.514C143.372 585.585 142.819 585.711 142.26 585.795C141.874 585.853 141.483 585.878 141.098 585.919L141.087 585.868C141.807 584.508 142.557 583.164 143.238 581.786C143.761 580.728 144.207 579.632 144.669 578.544C145.433 576.743 146.043 574.886 146.549 572.998C147.032 571.191 147.446 569.365 147.578 567.49C147.63 566.742 147.666 565.99 147.661 565.241C147.658 564.642 147.593 564.044 147.533 563.448C147.465 562.765 147.259 562.117 146.973 561.494C146.597 560.673 146.013 559.999 145.398 559.36C144.907 558.848 144.366 558.381 143.829 557.915C143.064 557.249 142.204 556.718 141.311 556.246C140.299 555.709 139.227 555.293 138.117 555.007C137.44 554.837 136.76 554.684 136.075 554.549C135.832 554.5 135.586 554.375 135.342 554.375H130.728C130.561 554.375 130.396 554.484 130.228 554.503C129.123 554.623 128.033 554.848 126.972 555.175C126.575 555.297 126.214 555.226 125.837 555.191C125.548 555.164 125.264 555.09 124.975 555.075C123.875 555.021 122.774 554.941 121.674 554.953C120.62 554.964 119.577 555.138 118.557 555.427C117.704 555.671 116.869 555.966 116.103 556.415C115.776 556.607 115.516 556.571 115.177 556.474C114.04 556.141 112.892 555.842 111.737 555.579C111.016 555.417 110.275 555.336 109.538 555.26C108.832 555.187 108.123 555.143 107.413 555.128C106.72 555.113 106.022 555.113 105.332 555.175C104.233 555.272 103.156 555.496 102.108 555.856C100.952 556.251 99.873 556.84 98.9157 557.598C97.9392 558.371 97.1557 559.313 96.5268 560.391C95.8633 561.527 95.4074 562.744 95.125 564.022C94.9715 564.714 95.0279 565.426 94.9224 566.129C94.8901 566.347 94.9554 566.566 94.9554 566.785V569.845C94.9554 570.049 94.8956 570.252 94.9213 570.456C94.9844 570.947 94.9626 571.441 95.0458 571.929C95.1763 572.7 95.2941 573.468 95.4526 574.234C95.6741 575.304 95.8856 576.372 96.1311 577.437C96.3097 578.212 96.5033 578.983 96.716 579.749C97.0396 580.92 97.3555 582.092 97.7221 583.249C98.0631 584.324 98.4514 585.384 98.8393 586.444C99.3707 587.91 100.022 589.33 100.787 590.689C101.454 591.867 102.214 592.97 103.235 593.877C103.909 594.475 104.657 594.935 105.528 595.165C106.209 595.345 106.922 595.365 107.612 595.223C108.411 595.06 109.158 594.703 109.785 594.182C109.859 594.122 109.939 594.076 110.026 594.186C110.358 594.606 110.801 594.886 111.265 595.128C112.516 595.781 113.879 595.977 115.263 596.056C115.599 596.075 115.937 596.027 116.275 596.018C116.934 595.999 117.574 595.871 118.203 595.689C118.533 595.594 118.855 595.472 119.191 595.359C119.208 595.717 119.23 596.061 119.242 596.405L119.288 598.282C119.297 598.568 119.308 598.853 119.334 599.138C119.402 599.871 119.469 600.604 119.556 601.335C119.617 601.839 119.68 602.347 119.799 602.839C120.036 603.831 120.362 604.799 120.771 605.734C121.162 606.641 121.764 607.441 122.527 608.069ZM120.523 598.711C120.484 597.83 120.454 596.949 120.435 596.067C120.411 594.983 120.403 593.899 120.388 592.815L120.386 592.774C119.835 593.105 119.292 593.467 118.718 593.765C118.044 594.115 117.313 594.318 116.556 594.375C115.963 594.42 115.36 594.46 114.77 594.414C113.801 594.335 112.833 594.184 111.965 593.706C111.614 593.512 111.247 593.276 111.004 592.968C110.423 592.226 110.701 591.289 111.578 590.838C112.183 590.526 112.844 590.396 113.5 590.244C114.071 590.114 114.637 589.96 115.194 589.781C115.744 589.6 116.092 589.154 116.435 588.716L116.978 588.017L116.325 587.949C115.676 587.889 115.057 587.71 114.466 587.448C113.96 587.224 113.953 587.199 113.581 587.602C112.961 588.275 112.359 588.964 111.751 589.648C111.304 590.151 110.86 590.657 110.415 591.162C109.975 591.662 109.562 592.189 109.087 592.653C108.383 593.343 107.533 593.758 106.52 593.711C105.87 593.681 105.275 593.453 104.739 593.081C103.635 592.312 102.891 591.235 102.213 590.105C101.345 588.656 100.679 587.113 100.109 585.528C99.7143 584.432 99.3175 583.336 98.9738 582.224C98.5993 581.016 98.2706 579.794 97.9475 578.571C97.7031 577.648 97.4866 576.718 97.2801 575.786C97.0424 574.727 96.8225 573.664 96.6205 572.597C96.486 571.877 96.4085 571.146 96.2997 570.421C96.1529 569.443 96.1261 568.456 96.1797 567.475C96.2271 566.59 96.3538 565.709 96.4799 564.83C96.6546 563.615 97.0552 562.468 97.6311 561.385C97.9864 560.725 98.4218 560.111 98.9274 559.558C99.7589 558.638 100.765 557.973 101.884 557.474C102.666 557.125 103.493 556.916 104.335 556.751C105.585 556.508 106.846 556.518 108.107 556.544C108.658 556.555 109.208 556.655 109.759 556.71C110.945 556.828 112.108 557.078 113.256 557.386C114.093 557.61 114.912 557.901 115.742 558.153C115.824 558.179 115.946 558.176 116.015 558.132C117.14 557.398 118.368 556.914 119.675 556.636C120.171 556.531 120.684 556.485 121.191 556.453C121.807 556.414 122.429 556.377 123.044 556.414C123.783 556.456 124.521 556.565 125.256 556.665C125.613 556.714 125.961 556.838 126.318 556.871C126.49 556.887 126.671 556.763 126.852 556.72C127.775 556.507 128.694 556.27 129.626 556.102C130.319 555.977 131.027 555.917 131.732 555.877C132.518 555.832 133.31 555.799 134.095 555.837C135.089 555.885 136.075 556.026 137.048 556.253C138.254 556.533 139.411 556.941 140.511 557.507C141.333 557.93 142.113 558.42 142.817 559.023C143.278 559.419 143.75 559.809 144.166 560.249C144.679 560.793 145.203 561.336 145.525 562.032C145.768 562.557 145.941 563.1 145.989 563.675C146.048 564.39 146.12 565.107 146.114 565.823C146.108 566.507 146.014 567.19 145.948 567.873C145.797 569.429 145.459 570.951 145.048 572.454C144.705 573.695 144.316 574.922 143.882 576.134C143.487 577.252 143.03 578.349 142.568 579.443C142.228 580.252 141.859 581.049 141.461 581.831C140.705 583.311 139.92 584.776 139.011 586.171C138.854 586.412 138.705 586.658 138.552 586.905C138.949 587.172 139.398 587.266 139.85 587.315C140.28 587.362 140.719 587.39 141.148 587.358C141.836 587.306 142.522 587.208 143.206 587.113C143.884 587.018 144.547 586.825 145.244 586.876C145.938 586.927 146.436 587.455 146.388 588.105C146.358 588.517 146.169 588.871 145.896 589.172C144.604 590.598 142.982 591.461 141.127 591.887C140.422 592.049 139.696 592.132 138.974 592.2C138.358 592.254 137.739 592.269 137.121 592.243C136.668 592.227 136.219 592.123 135.756 592.056C135.709 592.479 135.665 592.921 135.611 593.36L135.395 595.047C135.33 595.582 135.279 596.119 135.211 596.653C135.146 597.172 135.064 597.689 134.994 598.207C134.93 598.69 134.883 599.175 134.81 599.657C134.7 600.396 134.595 601.137 134.45 601.87C134.277 602.746 134.013 603.594 133.579 604.385C133.051 605.35 132.303 606.085 131.35 606.629C130.368 607.19 129.294 607.482 128.206 607.726C127.435 607.9 126.642 607.927 125.861 607.857C124.508 607.734 123.353 607.156 122.479 606.106C121.646 605.104 121.082 603.957 120.881 602.657C120.786 602.039 120.712 601.418 120.66 600.794C120.599 600.101 120.554 599.407 120.523 598.711ZM122.045 589.809C122.053 590.272 122.005 590.735 122.007 591.198C122.017 593.354 122.032 595.51 122.051 597.666C122.054 598.018 122.071 598.372 122.097 598.723C122.15 599.46 122.202 600.197 122.273 600.931C122.325 601.453 122.395 601.973 122.477 602.491C122.594 603.224 122.927 603.877 123.306 604.501C123.632 605.038 124.056 605.493 124.615 605.808C125.565 606.342 126.586 606.387 127.617 606.19C128.312 606.058 128.997 605.844 129.672 605.624C130.336 605.411 130.943 605.048 131.445 604.563C131.919 604.104 132.255 603.545 132.482 602.927C132.921 601.729 133.059 600.468 133.24 599.217C133.308 598.748 133.367 598.278 133.429 597.809C133.5 597.275 133.571 596.741 133.639 596.207C133.691 595.809 133.737 595.411 133.785 595.013C133.855 594.441 133.928 593.871 133.994 593.299C134.045 592.857 134.088 592.414 134.133 591.97C134.191 591.404 134.253 590.839 134.304 590.272C134.342 589.842 134.326 589.404 134.403 588.982C134.543 588.208 134.909 587.549 135.595 587.123C135.882 586.945 136.207 586.828 136.525 586.677L136.47 586.594C136.176 586.213 135.875 585.837 135.586 585.451C135.133 584.845 134.807 584.169 134.48 583.49C134.17 582.846 133.79 582.237 133.464 581.6C132.894 580.489 132.314 579.382 131.788 578.251C131.128 576.828 130.608 575.355 130.445 573.78C130.375 573.113 130.357 572.447 130.493 571.787C130.709 570.732 131.259 569.907 132.185 569.342C133.045 568.817 134.002 568.647 134.982 568.594C135.59 568.561 136.203 568.588 136.834 568.588L136.813 568.482C136.42 567.66 136.054 566.825 135.623 566.023C135.017 564.892 134.241 563.872 133.377 562.925C132.739 562.221 132.039 561.576 131.284 560.999C130.537 560.434 129.751 559.929 128.911 559.517C127.913 559.02 126.859 558.646 125.772 558.401C124.72 558.167 123.663 558.025 122.584 558.013C121.664 558.003 120.75 558.045 119.854 558.252C118.501 558.565 117.264 559.122 116.189 560.024C115.593 560.523 115.061 561.094 114.604 561.723C114.065 562.462 113.631 563.262 113.259 564.1C112.749 565.25 112.399 566.446 112.159 567.676C112.04 568.29 111.946 568.907 111.85 569.525C111.817 569.742 111.815 569.963 111.795 570.211L112.203 569.998L112.602 569.82C113.95 569.203 115.347 568.806 116.848 568.852C117.487 568.871 118.096 568.997 118.664 569.277C119.752 569.814 120.388 570.726 120.665 571.88C120.856 572.677 120.987 573.489 121.114 574.3C121.214 574.933 121.316 575.573 121.327 576.211C121.343 577.144 121.296 578.079 121.246 579.012C121.202 579.805 121.038 580.586 120.759 581.33C120.254 582.678 119.692 584.004 119.167 585.345C118.993 585.788 118.86 586.246 118.696 586.733L119.359 586.734C119.44 586.735 119.522 586.738 119.599 586.756C120.203 586.898 120.727 587.172 121.156 587.636C121.729 588.252 122.03 588.973 122.045 589.809ZM110.523 583.416C110.181 582.612 109.975 581.756 109.912 580.884C109.854 580.061 109.952 579.243 110.037 578.424C110.118 577.631 110.187 576.834 110.211 576.039C110.251 574.729 110.162 573.422 110.1 572.114C110.062 571.335 110.153 570.546 110.222 569.766C110.285 569.062 110.363 568.358 110.496 567.665C110.719 566.502 111.015 565.355 111.436 564.244C111.835 563.191 112.295 562.166 112.943 561.242C113.387 560.608 113.891 560.017 114.374 559.398L114.23 559.347C112.655 558.847 111.054 558.455 109.406 558.285C108.627 558.204 107.845 558.157 107.065 558.11C106.825 558.096 106.581 558.128 106.341 558.151C105.746 558.209 105.142 558.231 104.556 558.343C103.559 558.532 102.602 558.852 101.717 559.371C100.933 559.832 100.246 560.441 99.6931 561.163C99.0753 561.961 98.6585 562.864 98.3599 563.826C98.0072 564.962 97.8387 566.131 97.7935 567.31C97.7539 568.344 97.7344 569.384 97.9129 570.414C98.0452 571.18 98.1339 571.955 98.2801 572.719C98.4767 573.761 98.6973 574.798 98.942 575.829C99.2952 577.305 99.649 578.781 100.068 580.239C100.469 581.634 100.92 583.018 101.411 584.385C101.812 585.501 102.276 586.595 102.764 587.675C103.082 588.379 103.467 589.056 103.871 589.715C104.3 590.415 104.789 591.079 105.451 591.586C106.287 592.227 106.934 592.327 107.785 591.623C108.148 591.323 108.456 590.95 108.773 590.595C109.276 590.033 109.761 589.454 110.262 588.888C110.9 588.169 111.546 587.457 112.187 586.74C112.323 586.589 112.454 586.432 112.585 586.28L112.366 586.088C111.575 585.333 110.948 584.424 110.523 583.416ZM134.709 561.986C135.233 562.595 135.731 563.227 136.2 563.88C137.099 565.141 137.823 566.518 138.351 567.974C138.585 568.618 138.773 569.269 138.689 569.974C138.631 570.468 138.635 570.968 138.592 571.465C138.556 571.878 138.49 572.289 138.437 572.7C138.357 573.321 138.241 573.94 138.206 574.564C138.172 575.157 138.208 575.757 138.245 576.351C138.282 576.955 138.364 577.557 138.419 578.16C138.482 578.844 138.566 579.527 138.585 580.213C138.601 580.776 138.551 581.341 138.502 581.903C138.44 582.577 138.276 583.238 138.017 583.863C137.836 584.306 137.622 584.735 137.419 585.178L137.501 585.264L137.624 585.36L137.75 585.137C138.804 583.479 139.74 581.749 140.552 579.96C141.072 578.805 141.566 577.638 142.033 576.461C142.761 574.63 143.348 572.747 143.791 570.828C143.992 569.967 144.146 569.092 144.282 568.217C144.389 567.532 144.477 566.84 144.497 566.15C144.518 565.418 144.478 564.68 144.41 563.95C144.359 563.399 144.223 562.844 143.878 562.395C143.323 561.674 142.723 560.984 141.986 560.437C141.365 559.978 140.746 559.506 140.08 559.119C139.023 558.506 137.88 558.099 136.685 557.821C135.518 557.549 134.338 557.432 133.149 557.407C132.448 557.392 131.744 557.467 131.045 557.533C130.411 557.593 129.781 557.694 129.143 557.778C129.828 558.163 130.503 558.506 131.14 558.909C132.479 559.757 133.68 560.778 134.709 561.986ZM117.309 585.738C117.742 584.354 118.331 583.031 118.902 581.702C119.366 580.623 119.619 579.488 119.703 578.32C119.745 577.745 119.734 577.162 119.705 576.585C119.678 575.943 119.619 575.303 119.529 574.667C119.409 573.855 119.273 573.044 119.081 572.247C118.873 571.386 118.348 570.785 117.449 570.564C116.901 570.429 116.357 570.435 115.802 570.522C114.45 570.735 113.213 571.233 112.06 571.963C111.828 572.11 111.699 572.229 111.74 572.561C111.825 573.266 111.843 573.983 111.84 574.694C111.835 575.701 111.792 576.709 111.754 577.715C111.742 578.043 111.695 578.37 111.659 578.696C111.605 579.196 111.501 579.696 111.504 580.195C111.508 580.71 111.56 581.236 111.685 581.734C112.082 583.315 112.921 584.607 114.298 585.52C115.145 586.081 116.081 586.363 117.109 586.417C117.177 586.181 117.241 585.959 117.309 585.738ZM115.693 572.184C115.512 571.804 115.616 571.488 116.035 571.342C116.138 571.307 116.243 571.268 116.349 571.258C116.496 571.243 116.643 571.254 116.791 571.254C117.324 571.257 117.836 571.331 118.276 571.67C118.558 571.887 118.634 572.175 118.451 572.472C118.191 572.892 117.797 573.103 117.311 573.143C116.547 573.206 116.011 572.85 115.693 572.184ZM136.884 572.045L137.058 570.524C137.083 570.321 136.977 570.265 136.806 570.26C136.268 570.246 135.732 570.226 135.194 570.217C134.589 570.206 133.999 570.303 133.439 570.533C132.818 570.789 132.344 571.199 132.151 571.876C132.009 572.374 131.964 572.896 132.019 573.411C132.094 574.209 132.275 574.993 132.556 575.744C132.932 576.744 133.325 577.744 133.796 578.703C134.432 580.001 135.152 581.257 135.829 582.535C136.009 582.876 136.162 583.233 136.35 583.631C136.73 582.839 136.937 581.976 136.958 581.098C136.977 580.372 136.919 579.645 136.877 578.919C136.85 578.474 136.787 578.032 136.744 577.589C136.685 576.972 136.593 576.354 136.579 575.735C136.565 575.106 136.609 574.473 136.663 573.844C136.713 573.243 136.812 572.645 136.884 572.045ZM135.674 571.557C135.474 572.108 135.048 572.419 134.494 572.51C133.979 572.595 133.527 572.405 133.191 571.993C132.951 571.7 133.043 571.354 133.402 571.155C133.814 570.927 134.266 570.87 134.8 570.835C134.946 570.862 135.163 570.884 135.371 570.943C135.672 571.028 135.783 571.256 135.674 571.557ZM119.715 588.523C119.421 588.282 119.03 588.268 118.75 588.532C118.402 588.862 118.095 589.238 117.789 589.608C117.436 590.037 117.103 590.482 116.648 590.814C115.984 591.297 115.209 591.497 114.431 591.686C113.813 591.836 113.191 591.977 112.571 592.121L112.564 592.201C112.748 592.286 112.926 592.392 113.118 592.453C114.064 592.752 115.027 592.902 116.027 592.817C116.748 592.755 117.435 592.598 118.086 592.289C118.983 591.864 119.674 591.191 120.26 590.408C120.358 590.278 120.403 590.085 120.414 589.916C120.454 589.321 120.152 588.879 119.715 588.523ZM136.984 588.265C136.52 588.421 136.143 588.658 136.031 589.16C135.954 589.499 135.926 589.85 135.897 590.198C135.891 590.259 135.968 590.372 136.026 590.387C136.383 590.482 136.742 590.593 137.107 590.626C137.556 590.666 138.013 590.653 138.465 590.631C138.953 590.607 139.444 590.575 139.925 590.494C141.057 590.304 142.153 589.994 143.127 589.352C143.478 589.12 143.825 588.883 144.175 588.648L144.146 588.598C143.773 588.653 143.402 588.721 143.028 588.761C142.267 588.842 141.506 588.928 140.742 588.972C140.373 588.993 139.999 588.922 139.627 588.892C139.003 588.842 138.394 588.703 137.867 588.369C137.562 588.177 137.308 588.156 136.984 588.265Z" fill="#FCFAFF"/>
<path d="M88.7249 609.723C89.5261 609.593 90.3368 609.53 91.1484 609.535C92.3956 609.535 93.3103 609.825 93.8906 610.347C94.4275 610.811 94.7466 611.522 94.7466 612.393C94.7466 613.278 94.4849 613.975 93.9916 614.483C93.3242 615.194 92.236 615.556 91.0028 615.556C90.6256 615.556 90.2773 615.542 89.9877 615.469V619.387H88.7249V609.723ZM89.9877 614.439C90.2634 614.511 90.6116 614.54 91.0324 614.54C92.5552 614.54 93.4844 613.8 93.4844 612.451C93.4844 611.16 92.5703 610.536 91.1775 610.536C90.6261 610.536 90.2054 610.579 89.9877 610.637V614.439ZM102.393 615.817C102.393 618.414 100.593 619.546 98.8956 619.546C96.995 619.546 95.5296 618.153 95.5296 615.933C95.5296 613.583 97.0675 612.204 99.0117 612.204C101.029 612.204 102.393 613.67 102.393 615.817ZM96.8214 615.889C96.8214 617.427 97.7065 618.588 98.9542 618.588C100.173 618.588 101.086 617.442 101.086 615.86C101.086 614.671 100.492 613.162 98.9827 613.162C97.4732 613.162 96.8214 614.555 96.8214 615.889ZM103.829 618.08C104.206 618.327 104.873 618.588 105.512 618.588C106.44 618.588 106.876 618.124 106.876 617.543C106.876 616.934 106.513 616.6 105.57 616.252C104.307 615.802 103.713 615.106 103.713 614.264C103.713 613.133 104.627 612.204 106.136 612.204C106.847 612.204 107.471 612.407 107.863 612.639L107.544 613.568C107.112 613.302 106.614 613.161 106.107 613.162C105.353 613.162 104.932 613.597 104.932 614.119C104.932 614.7 105.353 614.961 106.267 615.309C107.486 615.773 108.11 616.383 108.11 617.427C108.11 618.661 107.152 619.531 105.484 619.531C104.715 619.531 104.004 619.343 103.511 619.052L103.829 618.08ZM111.287 610.347V612.363H113.114V613.335H111.287V617.122C111.287 617.993 111.533 618.486 112.244 618.486C112.494 618.49 112.743 618.46 112.984 618.399L113.042 619.357C112.796 619.458 112.404 619.531 111.911 619.531C111.316 619.531 110.837 619.342 110.532 618.994C110.17 618.617 110.039 617.993 110.039 617.166V613.335H108.951V612.363H110.039V610.68L111.287 610.347ZM120.515 612.364C120.485 612.872 120.456 613.437 120.456 614.293V618.371C120.456 619.981 120.137 620.968 119.455 621.578C118.773 622.216 117.787 622.419 116.902 622.419C116.06 622.419 115.132 622.216 114.565 621.839L114.884 620.867C115.349 621.157 116.074 621.418 116.945 621.418C118.251 621.418 119.208 620.736 119.208 618.966V618.182H119.179C118.787 618.835 118.033 619.358 116.945 619.358C115.204 619.358 113.956 617.878 113.956 615.933C113.956 613.554 115.508 612.204 117.119 612.204C118.338 612.204 119.006 612.843 119.31 613.423H119.339L119.397 612.364H120.515ZM119.194 615.135C119.194 614.917 119.18 614.729 119.122 614.555C118.89 613.815 118.266 613.205 117.337 613.205C116.118 613.205 115.248 614.235 115.248 615.86C115.248 617.239 115.944 618.385 117.323 618.385C118.106 618.385 118.817 617.892 119.093 617.079C119.165 616.862 119.195 616.615 119.195 616.397L119.194 615.135ZM122.487 614.555C122.487 613.728 122.473 613.017 122.429 612.364H123.547L123.59 613.742H123.648C123.967 612.799 124.736 612.204 125.592 612.204C125.737 612.204 125.838 612.219 125.954 612.248V613.452C125.811 613.421 125.666 613.406 125.52 613.408C124.62 613.408 123.981 614.09 123.807 615.048C123.772 615.244 123.752 615.443 123.749 615.643V619.386H122.487V614.555ZM127.798 616.107C127.827 617.834 128.929 618.545 130.206 618.545C131.121 618.545 131.671 618.385 132.15 618.182L132.368 619.096C131.918 619.299 131.149 619.531 130.032 619.531C127.87 619.531 126.579 618.109 126.579 615.991C126.579 613.873 127.826 612.204 129.872 612.204C132.165 612.204 132.774 614.22 132.774 615.512C132.774 615.773 132.745 615.976 132.73 616.107L127.798 616.107ZM131.541 615.193C131.555 614.381 131.207 613.118 129.771 613.118C128.48 613.118 127.914 614.308 127.812 615.193H131.541ZM134.225 617.848C134.909 618.259 135.69 618.479 136.488 618.487C137.78 618.487 138.534 617.805 138.534 616.818C138.534 615.904 138.012 615.382 136.691 614.874C135.095 614.308 134.109 613.481 134.109 612.103C134.109 610.579 135.371 609.448 137.272 609.448C138.273 609.448 138.998 609.68 139.434 609.926L139.085 610.956C138.515 610.65 137.876 610.49 137.228 610.492C135.893 610.492 135.386 611.29 135.386 611.958C135.386 612.872 135.98 613.321 137.33 613.844C138.984 614.483 139.825 615.28 139.825 616.716C139.825 618.225 138.708 619.531 136.401 619.531C135.458 619.531 134.428 619.256 133.905 618.907L134.225 617.848ZM149.619 620.823C148.358 620.492 147.109 620.114 145.876 619.691C145.672 619.618 145.469 619.546 145.281 619.546C142.959 619.459 140.972 617.747 140.972 614.598C140.972 611.464 142.887 609.448 145.527 609.448C148.182 609.448 149.91 611.508 149.91 614.395C149.91 616.905 148.749 618.516 147.124 619.081V619.139C148.096 619.386 149.155 619.618 149.982 619.763L149.619 620.823ZM148.574 614.453C148.574 612.494 147.559 610.477 145.484 610.477C143.351 610.477 142.306 612.45 142.321 614.569C142.306 616.644 143.453 618.516 145.426 618.516C147.443 618.516 148.574 616.687 148.574 614.453ZM151.548 609.607H152.811V618.327H156.989V619.386H151.548V609.607Z" fill="#FCFAFF"/>
<rect x="75" y="417" width="95" height="95" rx="20" fill="#222222" fill-opacity="0.35"/>
<rect x="76" y="418" width="93" height="93" rx="19" stroke="#FCFAFF" stroke-opacity="0.25" stroke-width="2"/>
<g clip-path="url(#clip0_0_1)">
<path d="M122.857 471.219C126.371 471.219 129.219 468.371 129.219 464.857C129.219 461.344 126.371 458.496 122.857 458.496C119.344 458.496 116.496 461.344 116.496 464.857C116.496 468.371 119.344 471.219 122.857 471.219Z" fill="#FCFAFF"/>
<path d="M147.02 454.366C145.792 453.92 144.509 453.473 143.17 453.083C143.504 451.743 143.783 450.404 144.007 449.121C145.179 441.754 143.895 436.565 140.324 434.556C139.263 433.942 138.092 433.663 136.752 433.663C132.846 433.663 127.879 436.565 122.857 441.42C117.835 436.565 112.868 433.663 108.962 433.663C107.623 433.663 106.451 433.942 105.391 434.556C101.819 436.621 100.536 441.81 101.708 449.121C101.931 450.404 102.21 451.743 102.545 453.083C101.205 453.473 99.9219 453.864 98.6942 454.366C91.7187 457.045 87.9241 460.728 87.9241 464.857C87.9241 468.987 91.7745 472.67 98.6942 475.348C99.9219 475.795 101.205 476.241 102.545 476.632C102.21 477.971 101.931 479.31 101.708 480.594C100.536 487.96 101.819 493.15 105.391 495.158C106.451 495.772 107.623 496.051 108.962 496.051C112.924 496.051 117.891 493.15 122.857 488.295C127.879 493.15 132.846 496.051 136.752 496.051C138.092 496.051 139.263 495.772 140.324 495.158C143.895 493.094 145.179 487.904 144.007 480.594C143.783 479.31 143.504 477.971 143.17 476.632C144.509 476.241 145.792 475.85 147.02 475.348C153.996 472.67 157.79 468.987 157.79 464.857C157.79 460.728 153.996 457.045 147.02 454.366ZM138.761 437.346C141.049 438.685 141.83 442.815 140.882 448.674C140.714 449.846 140.435 451.074 140.1 452.357C137.199 451.688 134.129 451.241 130.893 450.962C128.996 448.283 127.042 445.884 125.089 443.708C129.219 439.634 133.404 436.844 136.808 436.844C137.533 436.844 138.203 437.011 138.761 437.346ZM132.511 470.438C131.507 472.223 130.335 474.009 129.107 475.795C127.042 475.962 124.978 476.018 122.857 476.018C120.681 476.018 118.616 475.962 116.607 475.795C115.379 474.009 114.263 472.223 113.259 470.438C112.199 468.596 111.194 466.699 110.301 464.857C111.194 463.016 112.199 461.118 113.259 459.277C114.263 457.491 115.435 455.705 116.663 453.92C118.728 453.752 120.792 453.696 122.913 453.696C125.089 453.696 127.154 453.752 129.163 453.92C130.391 455.705 131.507 457.491 132.511 459.277C133.571 461.118 134.576 463.016 135.469 464.857C134.52 466.699 133.571 468.54 132.511 470.438ZM137.143 468.596C137.98 470.549 138.65 472.446 139.263 474.344C137.366 474.79 135.357 475.125 133.237 475.404C133.906 474.344 134.632 473.228 135.246 472.056C135.915 470.884 136.529 469.712 137.143 468.596ZM122.857 483.719C121.518 482.268 120.234 480.705 119.007 479.087C120.29 479.143 121.574 479.199 122.857 479.199C124.141 479.199 125.424 479.143 126.708 479.087C125.48 480.705 124.196 482.268 122.857 483.719ZM112.478 475.348C110.357 475.069 108.348 474.734 106.451 474.288C107.065 472.446 107.734 470.493 108.571 468.54C109.185 469.656 109.799 470.828 110.469 471.944C111.138 473.172 111.808 474.232 112.478 475.348ZM108.571 461.118C107.734 459.165 107.065 457.268 106.451 455.371C108.348 454.924 110.357 454.589 112.478 454.31C111.808 455.371 111.083 456.487 110.469 457.658C109.799 458.83 109.185 460.002 108.571 461.118ZM122.857 445.996C124.196 447.446 125.48 449.009 126.708 450.627C125.424 450.571 124.141 450.516 122.857 450.516C121.574 450.516 120.29 450.571 119.007 450.627C120.234 449.009 121.518 447.446 122.857 445.996ZM135.246 457.714L133.237 454.366C135.357 454.645 137.366 454.98 139.263 455.426C138.65 457.268 137.98 459.221 137.143 461.174C136.529 460.002 135.915 458.83 135.246 457.714ZM104.833 448.674C103.884 442.815 104.665 438.685 106.953 437.346C107.511 437.011 108.181 436.844 108.906 436.844C112.254 436.844 116.44 439.578 120.625 443.708C118.672 445.828 116.719 448.283 114.821 450.962C111.585 451.241 108.516 451.743 105.614 452.357C105.279 451.074 105.056 449.846 104.833 448.674ZM91.0491 464.857C91.0491 462.234 94.2299 459.444 99.8103 457.379C100.926 456.933 102.154 456.542 103.382 456.208C104.275 458.998 105.391 461.955 106.73 464.913C105.391 467.871 104.219 470.772 103.382 473.563C95.6808 471.33 91.0491 467.982 91.0491 464.857ZM106.953 492.368C104.665 491.029 103.884 486.9 104.833 481.04C105 479.868 105.279 478.641 105.614 477.357C108.516 478.027 111.585 478.473 114.821 478.752C116.719 481.431 118.672 483.83 120.625 486.007C116.496 490.08 112.31 492.871 108.906 492.871C108.181 492.871 107.511 492.703 106.953 492.368ZM140.882 481.04C141.83 486.9 141.049 491.029 138.761 492.368C138.203 492.703 137.533 492.871 136.808 492.871C133.46 492.871 129.275 490.136 125.089 486.007C127.042 483.886 128.996 481.431 130.893 478.752C134.129 478.473 137.199 477.971 140.1 477.357C140.435 478.641 140.658 479.868 140.882 481.04ZM145.904 472.335C144.788 472.781 143.56 473.172 142.333 473.507C141.44 470.717 140.324 467.759 138.984 464.801C140.324 461.844 141.496 458.942 142.333 456.152C150.033 458.384 154.665 461.732 154.665 464.857C154.665 467.48 151.429 470.27 145.904 472.335Z" fill="#FCFAFF"/>
</g>
<rect x="520" y="417" width="95" height="95" rx="20" fill="#222222" fill-opacity="0.35"/>
<rect x="521" y="418" width="93" height="93" rx="19" stroke="#FCFAFF" stroke-opacity="0.25" stroke-width="2"/>
<g clip-path="url(#clip1_0_1)">
<path d="M601.786 458.216C599.386 456.821 596.205 456.654 593.527 457.435C593.192 454.533 591.295 452.022 589.063 450.237L588.17 449.511L587.388 450.404C585.882 452.134 585.435 455.036 585.659 457.268C585.826 458.886 586.328 460.56 587.333 461.899C586.551 462.346 585.714 462.96 584.933 463.239C583.371 463.797 581.641 464.355 579.967 464.355H576.228V456.487H568.973V442.536H560.603V449.232H546.652V456.487H539.397V464.299H533.147L533.036 465.136C532.757 468.708 533.203 472.167 534.71 475.46L535.324 476.687L535.38 476.799C539.788 484.277 547.489 487.402 555.915 487.402C572.21 487.402 585.659 480.091 591.797 464.745C595.926 464.969 600.167 463.741 602.176 459.779L602.679 458.774L601.786 458.216ZM547.768 450.906H553.348V457.045H547.768V450.906ZM555.078 475.571C555.078 476.52 554.297 477.301 553.348 477.301C552.4 477.301 551.618 476.52 551.618 475.571C551.618 474.623 552.4 473.841 553.348 473.841C554.297 473.897 555.078 474.623 555.078 475.571ZM547.768 458.161H553.348V464.299H547.768V458.161ZM540.513 458.161H546.652V464.299H540.513V458.161ZM555.971 486.174C547.154 486.118 542.411 483.161 538.505 479.254C539.676 479.31 540.792 479.366 541.797 479.366C542.69 479.366 543.583 479.366 544.42 479.31C546.596 479.199 548.493 478.92 550.056 478.473C551.339 481.431 553.683 484.165 557.868 486.174H555.971ZM560.603 464.299H554.464V458.161H560.603V464.299ZM560.603 457.045H554.464V450.906H560.603V457.045ZM567.857 464.299H561.719V458.161H567.857V464.299ZM567.857 457.045H561.719V450.906H567.857V457.045ZM567.857 449.79H561.719V443.652H567.857V449.79ZM575.112 464.299H568.973V458.161H575.112V464.299ZM553.795 474.455C553.683 474.399 553.516 474.344 553.348 474.344C552.679 474.344 552.121 474.902 552.121 475.571C552.121 476.241 552.679 476.799 553.348 476.799C554.018 476.799 554.576 476.241 554.576 475.571C554.576 475.404 554.52 475.237 554.464 475.125C554.353 475.292 554.241 475.404 554.018 475.404C553.739 475.404 553.516 475.181 553.516 474.902C553.571 474.678 553.683 474.511 553.795 474.455Z" fill="#FCFAFF"/>
</g>
<rect x="198" y="218" width="294" height="294" rx="20" fill="#222222" fill-opacity="0.35"/>
<rect x="199" y="219" width="292" height="292" rx="19" stroke="#FCFAFF" stroke-opacity="0.25" stroke-width="2"/>
<path d="M438.498 313.433L439.016 313.087C437.98 311.188 436.426 309.461 434.872 308.597L351.459 260.587C350.077 259.724 348.178 259.378 346.105 259.378C344.033 259.378 342.133 259.896 340.752 260.587L257.857 308.77C254.921 310.497 252.849 314.814 252.849 318.095V414.288C252.849 416.188 253.194 418.26 254.403 420.16L254.058 420.332C254.921 421.714 256.13 422.923 257.339 423.614L340.579 471.796C341.961 472.66 343.86 473.005 345.933 473.005C348.005 473.005 349.905 472.487 351.286 471.796L434.181 423.614C437.117 421.887 439.189 417.569 439.189 414.288V317.923C439.362 316.541 439.189 314.987 438.498 313.433ZM346.105 434.321C308.457 434.321 277.89 403.753 277.89 366.105C277.89 328.457 308.457 297.89 346.105 297.89C371.492 297.89 393.597 311.878 405.34 332.429L382.89 345.382C375.637 332.429 361.821 323.794 346.105 323.794C322.791 323.794 303.794 342.791 303.794 366.105C303.794 389.419 322.791 408.416 346.105 408.416C361.821 408.416 375.637 399.781 382.89 387.002L405.168 400.127C393.424 420.505 371.319 434.321 346.105 434.321ZM434.181 362.651H428.655L427.1 369.559H434.181V378.194H425.546L423.474 388.556H415.012L417.084 378.194H410.521L408.449 388.556H400.16L402.232 378.194H397.914V369.559H403.959L405.513 362.651H397.914V354.016H407.067L409.14 343.655H417.602L415.53 354.016H422.092L424.164 343.655H432.454L430.382 354.016H434.181V362.651ZM412.248 369.559H418.811L420.365 362.651H413.803L412.248 369.559Z" fill="#FCFAFF"/>
<rect y="218" width="171" height="171" rx="20" fill="#222222" fill-opacity="0.35"/>
<rect x="1" y="219" width="169" height="169" rx="19" stroke="#FCFAFF" stroke-opacity="0.25" stroke-width="2"/>
<path fill-rule="evenodd" clip-rule="evenodd" d="M84.4061 250.786C84.2163 250.896 83.4198 252.039 82.6353 253.326C80.6665 256.557 80.6444 256.559 77.9997 253.776C76.279 251.966 75.8632 251.635 75.3087 251.639C74.9481 251.641 74.4931 251.763 74.2962 251.911C74.1003 252.058 73.5449 253.234 73.0627 254.522C71.9588 257.475 71.9056 257.57 71.2939 257.687C70.9172 257.759 70.192 257.355 68.4532 256.106C67.1695 255.183 65.9099 254.429 65.6548 254.429C64.5961 254.429 64.2978 255.008 63.7935 258.038C63.1527 261.891 63.1748 261.878 59.7013 260.3C58.2991 259.664 56.9692 259.143 56.7452 259.143C56.5212 259.143 56.0963 259.384 55.802 259.678C55.2676 260.214 55.2666 260.216 55.4123 263.162L55.5589 266.111L55.0015 266.409C54.5073 266.673 54.1667 266.641 51.979 266.124C49.1233 265.45 48.5207 265.468 47.9421 266.247L47.5192 266.815L48.0867 269.247C48.3981 270.584 48.6984 271.872 48.7547 272.108C48.8099 272.343 48.7145 272.719 48.5417 272.943C48.2565 273.312 47.9531 273.345 45.3104 273.305C40.8375 273.235 40.5834 273.618 42.4316 277.652C43.0192 278.933 43.5003 280.096 43.5003 280.236C43.5003 280.973 42.9127 281.241 40.3885 281.653C38.9762 281.883 37.7488 282.072 37.6604 282.072C37.572 282.072 37.3068 282.265 37.0718 282.5C36.3034 283.268 36.5213 283.989 38.2641 286.449C40.4347 289.513 40.4307 289.524 36.8448 290.896C32.7666 292.456 32.6843 292.841 35.7891 295.786C38.6809 298.528 38.6839 298.488 35.4104 300.546C32.9304 302.104 32.8922 302.141 32.8289 302.986C32.7526 304.013 32.7707 304.031 35.7318 305.84C38.6598 307.628 38.6598 307.683 35.7861 310.402C32.6953 313.325 32.7907 313.752 36.8719 315.291C40.4377 316.636 40.4428 316.653 38.2681 319.716C37.0356 321.453 36.6429 322.176 36.6429 322.712C36.6429 323.716 37.1652 323.972 40.2861 324.496C42.9147 324.939 43.5003 325.2 43.5003 325.925C43.5003 326.073 43.0182 327.247 42.4286 328.53C40.5944 332.525 40.8034 332.858 45.1446 332.858C49.1876 332.858 49.0801 332.734 48.2093 336.38C47.5524 339.128 47.5423 339.655 48.1369 340.248C48.592 340.704 49.4498 340.653 52.1327 340.011C54.1818 339.522 54.5414 339.488 55.0165 339.742L55.5589 340.032L55.4123 342.981C55.2666 345.928 55.2676 345.93 55.802 346.465C56.0963 346.759 56.5272 347 56.7583 347C56.9893 347 58.3192 346.482 59.7144 345.848C63.1768 344.276 63.1547 344.263 63.7935 348.104C64.2998 351.149 64.5951 351.714 65.6759 351.714C65.9441 351.714 67.1766 350.991 68.4161 350.107C70.5928 348.554 71.1573 348.311 71.7368 348.68C71.8865 348.774 72.4671 350.05 73.0266 351.514C73.8492 353.668 74.1506 354.229 74.6086 354.448C75.4805 354.865 76.0199 354.53 78.069 352.298C80.543 349.603 80.6444 349.616 82.6644 352.89C84.8953 356.504 85.4729 356.496 87.7601 352.816C89.7308 349.646 89.7077 349.648 92.3715 352.431C94.1404 354.277 94.5171 354.571 95.1137 354.571C95.4944 354.571 95.9494 354.428 96.1232 354.254C96.298 354.079 96.8766 352.788 97.4089 351.386C97.9413 349.983 98.4928 348.761 98.6354 348.671C99.1989 348.312 99.7825 348.564 101.956 350.107C103.236 351.016 104.44 351.714 104.726 351.714C105.789 351.714 106.173 350.96 106.615 347.995C106.993 345.467 107.069 345.225 107.566 344.972C108.055 344.724 108.349 344.808 110.643 345.849C112.038 346.482 113.368 347 113.599 347C113.83 347 114.268 346.752 114.57 346.449L115.122 345.899L114.97 343.071C114.825 340.371 114.838 340.226 115.269 339.837C115.712 339.436 115.757 339.438 118.234 340.003C121.234 340.688 121.793 340.706 122.357 340.143C122.907 339.592 122.901 339.472 122.148 336.295C121.303 332.731 121.19 332.858 125.25 332.858C128.017 332.858 128.325 332.818 128.678 332.43C129.267 331.779 129.127 331.033 127.943 328.509C127.345 327.238 126.86 326.08 126.864 325.938C126.884 325.187 127.474 324.931 130.199 324.488C131.866 324.218 133.114 323.905 133.34 323.701C134.097 323.017 133.819 322.127 132.09 319.703C129.923 316.666 129.932 316.636 133.402 315.358C137.556 313.827 137.675 313.317 134.566 310.363C131.686 307.626 131.685 307.641 134.839 305.705C138.652 303.364 138.658 302.837 134.907 300.509C131.68 298.507 131.682 298.535 134.574 295.789C137.676 292.842 137.592 292.456 133.512 290.896C129.912 289.519 129.901 289.485 132.089 286.482C133.392 284.694 133.714 284.101 133.714 283.488C133.714 282.417 133.234 282.177 130.076 281.667C127.437 281.241 126.857 280.982 126.857 280.232C126.857 280.089 127.339 278.941 127.929 277.678C129.083 275.206 129.244 274.217 128.592 273.625C128.241 273.308 127.771 273.263 125.256 273.304C122.624 273.348 122.288 273.311 121.923 272.944C121.524 272.543 121.528 272.487 122.151 269.889C122.914 266.705 122.917 266.627 122.29 266.038C121.653 265.439 121.255 265.449 118.331 266.137C116.2 266.639 115.848 266.672 115.364 266.413L114.814 266.119L114.966 263.18L115.119 260.242L114.569 259.692C114.267 259.39 113.838 259.143 113.615 259.143C113.393 259.143 112.07 259.668 110.676 260.309C108.348 261.381 108.097 261.452 107.594 261.189C107.092 260.926 107.009 260.667 106.58 258.048C106.084 255.019 105.778 254.429 104.702 254.429C104.447 254.429 103.183 255.187 101.892 256.114C99.7724 257.637 99.4882 257.781 98.9598 257.597C98.5229 257.444 98.2688 257.112 97.9584 256.285C97.7284 255.677 97.2884 254.503 96.979 253.679C96.3542 252.015 96.0057 251.643 95.0695 251.643C94.5472 251.643 94.0741 252.018 92.3786 253.779C89.7137 256.547 89.7037 256.546 87.744 253.332C86.9605 252.047 86.1419 250.9 85.9239 250.784C85.4337 250.521 84.8572 250.522 84.4061 250.786ZM86.8349 260.464C89.1563 262.116 87.9218 266 85.0751 266C82.3128 266 80.9217 262.673 82.8944 260.783C84.0074 259.716 85.6035 259.587 86.8349 260.464ZM83.916 270.723C85.4377 271.302 86.0625 270.954 89.5369 267.606L92.1475 265.088L93.2525 265.235C96.7179 265.695 103.61 268.723 107.571 271.524C111.21 274.099 116.047 279.345 118.108 282.952L118.549 283.724L116.596 288.124C115.521 290.543 114.643 292.777 114.643 293.09C114.643 293.81 115.115 294.949 115.57 295.326C115.761 295.485 117.585 296.363 119.621 297.276L123.321 298.938L123.467 299.879C123.655 301.105 123.68 304.118 123.509 304.974L123.375 305.643H121.263C118.813 305.643 119.002 305.424 118.869 308.429C118.773 310.608 118.247 311.812 117.049 312.591C115.099 313.864 111.877 313.633 110.511 312.123C110.301 311.891 109.893 310.725 109.604 309.531C108.759 306.042 107.624 304.084 105.344 302.178C104.624 301.577 104.035 301.015 104.035 300.93C104.035 300.845 104.827 300.178 105.795 299.45C109.321 296.792 111.348 293.699 111.571 290.634C111.996 284.789 107.339 279.341 100.412 277.575C98.77 277.156 98.0689 277.143 77.7516 277.143C66.2203 277.143 56.7854 277.068 56.7854 276.976C56.7854 276.76 59.3478 274.273 60.8575 273.026C65.0029 269.598 70.3878 266.901 75.9646 265.461L77.8932 264.962L80.6334 267.74C82.1411 269.268 83.6186 270.61 83.916 270.723ZM49.4116 288.6C50.6742 289.427 51.1915 291.504 50.4462 292.752C49.2931 294.685 46.3721 294.766 45.218 292.898C43.5395 290.184 46.7719 286.87 49.4116 288.6ZM123.792 288.705C127.095 290.719 124.535 295.673 121 294.109C118.639 293.065 118.564 289.838 120.872 288.661C121.835 288.17 122.942 288.187 123.792 288.705ZM59.1429 301.036V313.357H48.2505L47.8185 311.483C46.9688 307.791 46.6112 303.972 46.8251 300.844L46.9748 298.647L50.7194 296.967C53.0689 295.914 54.5796 295.112 54.7744 294.813C55.6262 293.515 55.5449 292.587 54.3496 289.947L53.7911 288.714H59.1429V301.036ZM90.5022 289.251C92.8346 289.857 94.0671 291.092 94.0701 292.823C94.0721 294.093 93.4423 294.891 91.8804 295.596C90.7744 296.096 90.5987 296.108 83.6247 296.177L76.5 296.245V288.928H82.8834C87.8695 288.928 89.5379 288.999 90.5022 289.251ZM88.0955 306.931C89.2517 307.253 90.6188 308.257 91.3199 309.301C92.0561 310.398 92.4871 311.824 93.5076 316.549C94.3694 320.543 94.9239 321.849 96.4768 323.548C98.4003 325.653 97.9544 325.571 107.563 325.571C112.165 325.571 115.928 325.645 115.928 325.735C115.928 325.897 112.759 329.643 112.623 329.643C112.583 329.643 110.928 329.297 108.944 328.873C103.342 327.677 103.14 327.817 101.855 333.821L101.028 337.678L100.282 338.046C99.0362 338.66 94.9882 339.926 92.8899 340.358C89.4224 341.071 85.6487 341.312 82.3319 341.032C76.6778 340.553 69.1905 338.359 68.8982 337.094C68.8359 336.826 68.4593 335.09 68.0625 333.236C67.6647 331.382 67.1816 329.623 66.9887 329.328C66.0616 327.914 65.0863 327.826 60.7972 328.775C59.173 329.135 57.7557 329.428 57.6472 329.428C57.4433 329.428 54.4289 325.943 54.4289 325.708C54.4289 325.634 61.5887 325.549 70.3396 325.519L86.2503 325.465L86.3076 319.813C86.3478 315.822 86.2925 314.073 86.1198 313.866C85.9269 313.633 84.9003 313.572 81.1878 313.572H76.5V306.714L81.9111 306.715C84.8863 306.716 87.6697 306.814 88.0955 306.931ZM63.5786 332.635C66.1088 334.176 64.8954 338.216 61.9031 338.213C58.8345 338.211 57.6974 334.209 60.3121 332.613C61.1769 332.086 62.6967 332.096 63.5786 332.635ZM109.91 332.803C111.151 333.712 111.564 335.604 110.795 336.863C108.777 340.173 103.731 337.542 105.417 334.06C106.245 332.349 108.448 331.733 109.91 332.803Z" fill="#FCFAFF"/>
<rect x="198" y="540" width="171" height="171" rx="20" fill="#222222" fill-opacity="0.35"/>
<rect x="199" y="541" width="169" height="169" rx="19" stroke="#FCFAFF" stroke-opacity="0.25" stroke-width="2"/>
<path fill-rule="evenodd" clip-rule="evenodd" d="M231.063 616.931C230.819 616.931 230.759 616.808 230.88 616.627L232.159 614.982C232.279 614.799 232.585 614.678 232.828 614.678H254.561C254.805 614.678 254.866 614.861 254.744 615.044L253.71 616.627C253.588 616.808 253.284 616.991 253.101 616.991L231.063 616.931ZM221.87 622.531C221.627 622.531 221.566 622.41 221.687 622.226L222.966 620.583C223.088 620.4 223.392 620.279 223.636 620.279H251.395C251.638 620.279 251.761 620.462 251.7 620.644L251.213 622.105C251.152 622.349 250.908 622.471 250.665 622.471L221.87 622.531ZM236.602 628.132C236.358 628.132 236.298 627.949 236.42 627.766L237.272 626.244C237.394 626.061 237.637 625.88 237.881 625.88H250.055C250.299 625.88 250.421 626.062 250.421 626.306L250.3 627.766C250.3 628.01 250.056 628.193 249.874 628.193L236.602 628.132ZM299.792 615.835C295.956 616.809 293.339 617.54 289.565 618.513C288.651 618.757 288.591 618.817 287.799 617.904C286.886 616.87 286.216 616.2 284.938 615.591C281.102 613.705 277.389 614.252 273.919 616.505C269.78 619.183 267.65 623.14 267.71 628.07C267.77 632.941 271.119 636.959 275.928 637.629C280.068 638.176 283.538 636.715 286.277 633.611C286.825 632.941 287.312 632.211 287.921 631.358H276.171C274.894 631.358 274.589 630.567 275.015 629.532C275.807 627.645 277.267 624.479 278.119 622.896C278.303 622.531 278.729 621.922 279.642 621.922H301.8C301.68 623.566 301.68 625.21 301.436 626.854C300.766 631.237 299.122 635.254 296.444 638.785C292.06 644.569 286.339 648.16 279.093 649.134C273.128 649.926 267.588 648.768 262.719 645.116C258.214 641.707 255.657 637.202 254.987 631.602C254.196 624.967 256.143 619 260.161 613.765C264.483 608.104 270.206 604.512 277.207 603.233C282.929 602.198 288.408 602.868 293.339 606.216C296.565 608.347 298.878 611.269 300.4 614.799C300.766 615.348 300.523 615.652 299.791 615.834L299.792 615.835Z" fill="#FCFAFF"/>
<path d="M319.942 649.5C314.402 649.377 309.349 647.795 305.088 644.142C301.496 641.038 299.244 637.08 298.514 632.393C297.418 625.514 299.304 619.426 303.445 614.009C307.888 608.164 313.245 605.12 320.49 603.842C326.699 602.747 332.544 603.356 337.84 606.947C342.649 610.234 345.631 614.678 346.423 620.522C347.457 628.74 345.084 635.437 339.422 641.16C335.404 645.238 330.473 647.795 324.812 648.951C323.168 649.256 321.524 649.317 319.942 649.5ZM334.43 624.905C334.37 624.114 334.37 623.505 334.248 622.896C333.153 616.87 327.612 613.461 321.829 614.8C316.167 616.078 312.515 619.67 311.176 625.393C310.08 630.141 312.393 634.95 316.776 636.898C320.125 638.359 323.473 638.176 326.699 636.533C331.508 634.037 334.126 630.141 334.43 624.905Z" fill="#FCFAFF"/>
<rect x="198" width="190" height="190" rx="20" fill="#222222" fill-opacity="0.35"/>
<rect x="199" y="1" width="188" height="188" rx="19" stroke="#FCFAFF" stroke-opacity="0.25" stroke-width="2"/>
<path d="M224.518 25.4018V164.911H364.027V25.4018H224.518ZM298.311 144.278C296.252 148.462 292.321 151.211 287.767 152.538C280.768 154.145 274.074 153.229 269.094 150.24C265.761 148.195 263.158 145.048 261.392 141.422L272.017 134.915C272.109 134.954 272.388 135.459 272.761 136.11C274.116 138.381 275.285 139.988 277.581 141.116C279.838 141.886 284.792 142.378 286.705 138.407C287.874 136.387 287.502 129.894 287.502 122.71C287.501 111.421 287.554 100.179 287.554 89.0179H300.622C300.622 101.295 300.689 112.922 300.622 124.902C300.65 132.246 301.287 138.792 298.311 144.278ZM352.523 140.586C347.981 156.124 322.655 156.628 312.535 146.363C310.396 143.946 309.056 142.684 307.78 139.895C313.158 136.801 313.158 136.801 318.392 133.773C321.234 138.143 323.863 140.546 328.592 141.529C335.007 142.312 341.461 140.108 340.013 133.295C338.526 127.73 326.877 126.376 318.95 120.425C310.902 115.02 309.016 101.886 315.629 94.3817C317.834 91.606 321.593 89.5346 325.537 88.5391L329.653 88.0067C337.556 87.8471 342.496 89.9342 346.122 93.9833C347.131 95.0056 347.954 96.1083 349.494 98.4978C345.285 101.181 345.298 101.155 339.268 105.059C337.98 102.285 335.843 100.544 333.584 99.7868C330.077 98.7243 325.655 99.8795 324.738 103.585C324.42 104.727 324.485 105.789 324.991 107.675C326.412 110.915 331.18 112.324 335.456 114.289C347.768 119.282 351.925 124.636 352.948 131.009C353.932 136.496 352.71 140.055 352.523 140.586Z" fill="#FCFAFF"/>
<rect x="520" y="218" width="171" height="171" rx="20" fill="#222222" fill-opacity="0.35"/>
<rect x="521" y="219" width="169" height="169" rx="19" stroke="#FCFAFF" stroke-opacity="0.25" stroke-width="2"/>
<path d="M659.882 273.507L660.183 273.306C659.58 272.201 658.676 271.196 657.772 270.694L609.257 242.77C608.453 242.268 607.348 242.067 606.143 242.067C604.937 242.067 603.833 242.368 603.029 242.77L554.815 270.795C553.107 271.799 551.902 274.31 551.902 276.219V332.167C551.902 333.272 552.103 334.478 552.806 335.583L552.605 335.683C553.107 336.487 553.81 337.19 554.513 337.592L602.929 365.616C603.732 366.118 604.837 366.319 606.042 366.319C607.248 366.319 608.353 366.018 609.156 365.616L657.37 337.592C659.078 336.587 660.283 334.076 660.283 332.167V276.118C660.384 275.315 660.283 274.411 659.882 273.507ZM606.143 328.752C615.283 328.752 623.319 323.73 627.538 316.297L640.495 323.931C633.665 335.784 620.808 343.819 606.143 343.819C584.245 343.819 566.466 326.04 566.466 304.143C566.466 282.246 584.245 264.467 606.143 264.467C620.908 264.467 633.766 272.603 640.596 284.556L627.538 292.089C623.319 284.556 615.283 279.534 606.143 279.534C592.583 279.534 581.533 290.583 581.533 304.143C581.533 317.703 592.583 328.752 606.143 328.752Z" fill="#FCFAFF"/>
<defs>
<clipPath id="clip0_0_1">
<rect width="71.4286" height="71.4286" fill="white" transform="translate(87.1429 429.143)"/>
</clipPath>
<clipPath id="clip1_0_1">
<rect width="71.4286" height="71.4286" fill="white" transform="translate(532.143 429.143)"/>
</clipPath>
</defs>
</svg>
