<?xml version="1.0" encoding="UTF-8" standalone="no"?>
<!-- Created with Inkscape (http://www.inkscape.org/) -->

<svg
   width="800"
   height="800"
   viewBox="0 0 211.66666 211.66667"
   version="1.1"
   id="svg1"
   xml:space="preserve"
   inkscape:version="1.3 (0e150ed6c4, 2023-07-21)"
   sodipodi:docname="hero.svg"
   xmlns:inkscape="http://www.inkscape.org/namespaces/inkscape"
   xmlns:sodipodi="http://sodipodi.sourceforge.net/DTD/sodipodi-0.dtd"
   xmlns:xlink="http://www.w3.org/1999/xlink"
   xmlns="http://www.w3.org/2000/svg"
   xmlns:svg="http://www.w3.org/2000/svg"><sodipodi:namedview
     id="namedview1"
     pagecolor="#ffffff"
     bordercolor="#000000"
     borderopacity="0.25"
     inkscape:showpageshadow="2"
     inkscape:pageopacity="0.0"
     inkscape:pagecheckerboard="0"
     inkscape:deskcolor="#d1d1d1"
     inkscape:document-units="px"
     inkscape:zoom="0.72426347"
     inkscape:cx="396.95499"
     inkscape:cy="340.34576"
     inkscape:window-width="1920"
     inkscape:window-height="1009"
     inkscape:window-x="2552"
     inkscape:window-y="-8"
     inkscape:window-maximized="1"
     inkscape:current-layer="layer2" /><defs
     id="defs1"><linearGradient
       id="c"
       gradientTransform="scale(0.954278,1.0479127)"
       x1="143.27769"
       y1="125.25026"
       x2="910.64557"
       y2="125.25026"
       gradientUnits="userSpaceOnUse"><stop
         offset="0%"
         stop-color="#2D4DE0"
         id="stop1" /><stop
         offset="33.333%"
         stop-color="#9F71F0"
         id="stop2" /><stop
         offset="66.667%"
         stop-color="#FC6277"
         id="stop3" /><stop
         offset="100%"
         stop-color="#f8ef6f"
         id="stop4" /></linearGradient><clipPath
       id="b"><path
         fill="currentColor"
         d="M 869,634.5 Q 870,769 760.5,866.5 651,964 513.5,923.5 376,883 271.5,812.5 167,742 146.5,621 126,500 148.5,380.5 171,261 278.5,204.5 386,148 505,133.5 624,119 715.5,198 807,277 837.5,388.5 868,500 869,634.5 Z"
         id="path4" /></clipPath><filter
       id="a"
       x="0"
       y="0"
       width="1"
       height="1"><feFlood
         flood-color="#fff"
         result="neutral-gray"
         id="feFlood4" /><feTurbulence
         type="fractalNoise"
         baseFrequency="2.5"
         numOctaves="100"
         stitchTiles="stitch"
         result="noise"
         id="feTurbulence4" /><feColorMatrix
         in="noise"
         type="saturate"
         values="0"
         result="destaturatedNoise"
         id="feColorMatrix4" /><feComponentTransfer
         in="desaturatedNoise"
         result="theNoise"
         id="feComponentTransfer4"><feFuncA
           type="table"
           tableValues="0 0 0.25 0"
           id="feFuncA4" /></feComponentTransfer><feBlend
         in="SourceGraphic"
         in2="theNoise"
         mode="normal"
         result="noisy-image"
         id="feBlend4" /></filter><clipPath
       id="b-7"><path
         fill="currentColor"
         d="M 869,634.5 Q 870,769 760.5,866.5 651,964 513.5,923.5 376,883 271.5,812.5 167,742 146.5,621 126,500 148.5,380.5 171,261 278.5,204.5 386,148 505,133.5 624,119 715.5,198 807,277 837.5,388.5 868,500 869,634.5 Z"
         id="path4-5" /></clipPath><filter
       id="a-7"
       x="0"
       y="0"
       width="1"
       height="1"><feFlood
         flood-color="#fff"
         result="neutral-gray"
         id="feFlood4-3" /><feTurbulence
         type="fractalNoise"
         baseFrequency="2.5"
         numOctaves="100"
         stitchTiles="stitch"
         result="noise"
         id="feTurbulence4-9" /><feColorMatrix
         in="noise"
         type="saturate"
         values="0"
         result="destaturatedNoise"
         id="feColorMatrix4-2" /><feComponentTransfer
         in="desaturatedNoise"
         result="theNoise"
         id="feComponentTransfer4-9"><feFuncA
           type="table"
           tableValues="0 0 0.25 0"
           id="feFuncA4-6" /></feComponentTransfer><feBlend
         in="SourceGraphic"
         in2="theNoise"
         mode="normal"
         result="noisy-image"
         id="feBlend4-3" /></filter><linearGradient
       id="b-75"
       gradientTransform="matrix(0.26116009,0,0,0.26805144,-36.421097,15.691754)"
       x1="33.273903"
       y1="21.060989"
       x2="253.33182"
       y2="21.060989"
       gradientUnits="userSpaceOnUse"><stop
         offset="0%"
         stop-color="#2D4DE0"
         id="stop1-9" /><stop
         offset="33.333%"
         stop-color="#9F71F0"
         id="stop2-7" /><stop
         offset="66.667%"
         stop-color="#fc6277"
         id="stop3-0" /><stop
         offset="100%"
         stop-color="#F8EF6F"
         id="stop4-5" /></linearGradient><clipPath
       id="a-3"><path
         fill="currentColor"
         d="M 916,631 Q 861,762 735.5,799.5 610,837 479.5,901 349,965 269.5,845 190,725 154.5,612.5 119,500 125,366 131,232 250,165 369,98 504.5,83 640,68 756.5,148.5 873,229 922,364.5 971,500 916,631 Z"
         id="path4-9" /></clipPath><linearGradient
       inkscape:collect="always"
       xlink:href="#b-75"
       id="linearGradient11"
       x1="17.222185"
       y1="66.80896"
       x2="177.33522"
       y2="201.07344"
       gradientUnits="userSpaceOnUse"
       gradientTransform="matrix(0.89572594,0,0,0.90332253,14.970113,-27.106495)" /><filter
       style="color-interpolation-filters:sRGB;"
       inkscape:label="Blur"
       id="filter11"
       x="-0.16281429"
       y="-0.10977603"
       width="1.3256286"
       height="1.2195521"><feGaussianBlur
         stdDeviation="13.1989 9.21153"
         result="blur"
         id="feGaussianBlur11" /></filter><clipPath
       id="clip0_0_1"><rect
         width="71.4286"
         height="71.4286"
         fill="white"
         transform="translate(87.1429 429.143)"
         id="rect23" /></clipPath><clipPath
       id="clip1_0_1"><rect
         width="71.4286"
         height="71.4286"
         fill="white"
         transform="translate(532.143 429.143)"
         id="rect24" /></clipPath></defs><g
     inkscape:label="Layer 1"
     inkscape:groupmode="layer"
     id="layer1"><path
       fill="url(#b)"
       d="m 199.43343,137.87979 q -13.03467,31.30954 -42.77744,40.27219 -29.74277,8.96266 -60.670499,24.25892 Q 65.057752,217.70716 46.216716,189.02667 27.375681,160.34618 18.962388,133.45822 10.549095,106.57026 11.97106,74.54371 13.393026,42.517168 41.59533,26.503894 69.797635,10.490621 101.91034,6.9055592 q 32.11271,-3.585061 59.72253,15.6547678 27.60982,19.239828 39.22253,51.624883 11.61272,32.38505 -1.42197,63.69458 z"
       id="path5"
       style="fill:url(#linearGradient11);stroke-width:0.237997;filter:url(#filter11)"
       clip-path="url(#clipPath6)"
       transform="matrix(0.81870012,0,0,0.85869626,16.482228,13.846118)" /></g><g
     inkscape:groupmode="layer"
     id="layer2"
     inkscape:label="Layer 2"><g
       style="fill:none"
       id="g13"
       transform="matrix(0.26458333,0,0,0.26458333,17.449927,11.881585)"><rect
         x="397"
         y="540"
         width="133"
         height="133"
         rx="20"
         fill="#222222"
         fill-opacity="0.35"
         id="rect1" /><rect
         x="398"
         y="541"
         width="131"
         height="131"
         rx="19"
         stroke="#fcfaff"
         stroke-opacity="0.25"
         stroke-width="2"
         id="rect2" /><path
         d="m 473.378,596.522 c -5.98,0 -8.952,3.122 -8.952,7.617 0,2.894 1.447,4.944 3.362,5.882 -0.938,0.86 -1.719,1.613 -2.423,2.355 -0.705,0.743 -1.135,1.529 -1.135,2.39 0,1.056 0.43,2.035 1.721,2.58 -1.368,1.292 -2.151,2.23 -2.151,3.99 0,3.088 2.698,4.887 9.774,4.887 6.803,0 10.751,-2.539 10.751,-7.036 0,-5.198 -3.987,-5.394 -10.751,-5.825 l -3.831,-0.235 1.291,-2.072 c 0.702,0.196 1.837,0.352 3.089,0.352 4.925,0 8.327,-2.541 8.327,-6.881 0,-1.799 -0.888,-3.049 -1.591,-3.949 l 3.453,-0.274 v -3.459 h -7.336 c -0.899,0 -1.917,-0.322 -3.598,-0.322 z m 1.759,22.274 c 1.879,0.117 3.365,0.195 3.365,1.448 0,2.109 -3.09,2.268 -5.357,2.268 -2.737,0 -4.731,-0.471 -4.731,-2.034 0,-0.783 0.508,-1.447 1.017,-2.072 z m -1.522,-11.494 c -2.581,0 -3.637,-1.33 -3.637,-3.245 0,-2.541 1.602,-3.598 3.753,-3.598 2.228,0 3.558,1.213 3.558,3.519 0,2.034 -1.486,3.324 -3.674,3.324 z m 17.864,-13.829 c 2.267,0 3.558,-1.291 3.558,-3.521 0,-2.226 -1.291,-3.44 -3.558,-3.44 -2.229,0 -3.52,1.214 -3.52,3.44 0,2.229 1.291,3.521 3.52,3.521 z m 2.99,19.351 v -15.98 h -7.604 l -0.43,3.043 2.084,0.683 c 0.392,0.117 0.481,0.331 0.481,0.76 v 11.494 c 0,0.588 -0.33,0.705 -0.877,0.784 l -2.248,0.273 v 3.275 h 11.719 v -3.275 l -2.247,-0.273 c -0.588,-0.079 -0.878,-0.156 -0.878,-0.784 z m 17.514,-0.812 c -0.939,0.351 -2.056,0.624 -3.153,0.624 -2.11,0 -2.643,-0.899 -2.643,-3.206 v -9.461 h 5.469 v -3.907 h -5.186 c -0.313,0 -0.283,-0.002 -0.283,-0.275 v -5.193 h -3.744 c -0.43,3.906 -2.506,5.622 -5.631,6.014 v 3.361 h 3.128 c 0.313,0 -0.003,0.275 -0.003,0.509 v 10.243 c 0,4.42 1.918,6.295 6.569,6.295 2.23,0 4.771,-0.743 6.453,-1.563 z m -74.75,-24.695 c -0.245,-0.245 -0.536,-0.439 -0.856,-0.571 -0.32,-0.133 -0.662,-0.201 -1.009,-0.201 -0.346,0 -0.689,0.068 -1.009,0.201 -0.32,0.132 -0.61,0.326 -0.855,0.571 l -3.712,3.712 4.709,4.708 c 0.555,-0.189 1.152,-0.218 1.723,-0.084 0.571,0.134 1.093,0.426 1.507,0.842 0.413,0.416 0.701,0.94 0.831,1.512 0.13,0.572 0.097,1.169 -0.096,1.723 l 4.539,4.538 c 0.67,-0.233 1.4,-0.232 2.07,0.004 0.67,0.236 1.24,0.692 1.616,1.294 0.377,0.602 0.538,1.314 0.457,2.02 -0.081,0.705 -0.399,1.362 -0.902,1.863 -0.291,0.292 -0.637,0.523 -1.018,0.681 -0.38,0.158 -0.789,0.239 -1.201,0.239 -0.412,0 -0.82,-0.081 -1.201,-0.239 -0.38,-0.158 -0.726,-0.389 -1.017,-0.681 -0.922,-0.922 -1.269,-2.276 -0.801,-3.412 l -4.352,-4.232 v 11.138 c 0,0.148 0.699,0.344 0.949,0.593 1.225,1.225 1.284,3.211 0.058,4.438 -0.288,0.291 -0.632,0.522 -1.01,0.68 -0.378,0.158 -0.784,0.239 -1.194,0.239 -0.409,0 -0.815,-0.081 -1.193,-0.239 -0.379,-0.158 -0.722,-0.389 -1.011,-0.68 -1.225,-1.227 -1.21,-3.212 0.016,-4.438 0.303,-0.302 0.26,-0.531 1.041,-0.684 V 601.61 c -0.781,-0.153 -0.724,-0.38 -1.026,-0.684 -0.44,-0.44 -0.74,-1.002 -0.86,-1.612 -0.12,-0.611 -0.056,-1.244 0.184,-1.818 l -4.642,-4.643 -12.257,12.257 c -0.245,0.245 -0.44,0.536 -0.572,0.856 -0.133,0.32 -0.201,0.663 -0.201,1.009 0,0.346 0.068,0.689 0.201,1.009 0.132,0.32 0.327,0.611 0.572,0.856 l 17.876,17.876 c 0.495,0.494 1.166,0.771 1.865,0.771 0.699,0 1.37,-0.277 1.864,-0.771 l 17.793,-17.794 c 0.495,-0.495 0.772,-1.166 0.772,-1.865 0,-0.699 -0.277,-1.37 -0.772,-1.865 z"
         fill="#fcfaff"
         id="path2" /><rect
         x="416"
         y="67"
         width="123"
         height="123"
         rx="20"
         fill="#222222"
         fill-opacity="0.35"
         id="rect3" /><rect
         x="417"
         y="68"
         width="121"
         height="121"
         rx="19"
         stroke="#fcfaff"
         stroke-opacity="0.25"
         stroke-width="2"
         id="rect4" /><path
         d="m 445.934,101.507 5.83,65.382 26.159,7.261 26.232,-7.27 5.836,-65.373 z m 50.004,36.478 -1.697,15.817 0.006,1.355 -16.285,4.548 -0.013,0.012 -16.414,-4.498 -1.111,-12.529 h 8.05 l 0.571,6.334 8.92,2.38 -0.003,0.011 v -0.023 l 8.955,-2.525 0.945,-10.512 h -18.718 l -0.16,-1.701 -0.366,-4.08 -0.191,-2.167 h 20.148 l 0.732,-7.947 H 458.62 l -0.161,-1.871 -0.366,-4.356 -0.191,-2.443 h 40.169 l -0.193,2.409 z m 0.087,-44.8778 -5.165,-6.0503 h 5.165 v -3.6126 h -11.56 v 3.1523 l 6.062,5.5178 h -6.062 v 3.6126 h 11.56 z m -13.728,0 -4.918,-6.0503 h 4.918 V 83.4443 H 471.46 v 3.1523 l 5.587,5.5178 h -5.587 v 3.6126 h 10.837 z m -13.005,-0.9928 h -5.78 v -5.0575 h 5.78 V 83.4443 H 459.177 V 95.727 h 10.115 z"
         fill="#fcfaff"
         id="path4-90" /><rect
         x="37"
         y="57"
         width="133"
         height="133"
         rx="20"
         fill="#222222"
         fill-opacity="0.35"
         id="rect5" /><rect
         x="38"
         y="58"
         width="131"
         height="131"
         rx="19"
         stroke="#fcfaff"
         stroke-opacity="0.25"
         stroke-width="2"
         id="rect6" /><path
         d="m 69.2883,95.0938 6.318,70.2492 28.3507,7.564 28.43,-7.421 6.325,-70.3922 z M 125.57,111.087 125.174,115.645 125,117.75 H 91.743 l 0.7945,9.375 h 31.6715 l -0.211,1.743 -2.043,22.585 -0.15,1.32 -17.805,4.793 v -0.004 l -0.021,0.009 -17.7946,-4.622 -1.2078,-13.324 h 8.725 l 0.6179,6.609 9.6755,2.453 0.005,-0.183 v 0.009 l 9.697,-2.069 1.012,-10.725 H 84.5883 l -2.136,-24.091 -0.2085,-2.472 H 125.778 Z M 75.8406,75.2711 h 4.3922 v 4.3406 h 4.0188 v -4.3406 h 4.3929 v 13.1422 h -4.3929 v -4.4008 h -4.018 v 4.4008 h -4.393 z m 18.5797,4.3586 h -3.8672 v -4.3586 h 12.1289 v 4.3586 h -3.8687 v 8.7836 h -4.393 z m 10.1867,-4.3586 h 4.58 l 2.818,4.618 2.815,-4.618 h 4.582 v 13.1422 h -4.376 v -6.5141 l -3.021,4.6727 h -0.077 l -3.023,-4.6727 v 6.5141 h -4.299 z m 16.981,0 h 4.394 v 8.7985 h 6.177 v 4.3445 h -10.571 z"
         fill="#fcfaff"
         id="path6" /><rect
         x="75"
         y="540"
         width="95"
         height="95"
         rx="20"
         fill="#222222"
         fill-opacity="0.35"
         id="rect7" /><rect
         x="76"
         y="541"
         width="93"
         height="93"
         rx="19"
         stroke="#fcfaff"
         stroke-opacity="0.25"
         stroke-width="2"
         id="rect8" /><path
         fill-rule="evenodd"
         clip-rule="evenodd"
         d="m 122.527,608.069 c 1,0.827 2.173,1.179 3.438,1.245 0.524,0.027 1.062,0.001 1.577,-0.092 0.817,-0.149 1.632,-0.335 2.427,-0.575 1.618,-0.488 3.016,-1.332 4.061,-2.694 0.594,-0.777 1.083,-1.617 1.396,-2.546 0.259,-0.766 0.503,-1.54 0.696,-2.324 0.153,-0.618 0.229,-1.255 0.322,-1.887 0.062,-0.417 0.099,-0.839 0.137,-1.26 0.063,-0.684 0.128,-1.366 0.173,-2.052 0.032,-0.476 0.031,-0.955 0.05,-1.432 0.006,-0.146 0.029,-0.29 0.043,-0.435 0.012,-0.134 0.08,-0.181 0.217,-0.178 0.482,0.007 0.966,0.019 1.447,-0.003 0.54,-0.024 1.083,-0.047 1.615,-0.136 0.756,-0.126 1.506,-0.286 2.247,-0.48 0.875,-0.229 1.678,-0.639 2.452,-1.106 0.899,-0.544 1.721,-1.182 2.385,-2.004 0.58,-0.715 0.855,-1.544 0.715,-2.449 -0.203,-1.314 -1.308,-2.175 -2.592,-2.234 -0.465,-0.021 -0.937,0.028 -1.401,0.087 -0.56,0.071 -1.113,0.197 -1.672,0.281 -0.386,0.058 -0.777,0.083 -1.162,0.124 l -0.011,-0.051 c 0.72,-1.36 1.47,-2.704 2.151,-4.082 0.523,-1.058 0.969,-2.154 1.431,-3.242 0.764,-1.801 1.374,-3.658 1.88,-5.546 0.483,-1.807 0.897,-3.633 1.029,-5.508 0.052,-0.748 0.088,-1.5 0.083,-2.249 -0.003,-0.599 -0.068,-1.197 -0.128,-1.793 -0.068,-0.683 -0.274,-1.331 -0.56,-1.954 -0.376,-0.821 -0.96,-1.495 -1.575,-2.134 -0.491,-0.512 -1.032,-0.979 -1.569,-1.445 -0.765,-0.666 -1.625,-1.197 -2.518,-1.669 -1.012,-0.537 -2.084,-0.953 -3.194,-1.239 -0.677,-0.17 -1.357,-0.323 -2.042,-0.458 -0.243,-0.049 -0.489,-0.174 -0.733,-0.174 h -4.614 c -0.167,0 -0.332,0.109 -0.5,0.128 -1.105,0.12 -2.195,0.345 -3.256,0.672 -0.397,0.122 -0.758,0.051 -1.135,0.016 -0.289,-0.027 -0.573,-0.101 -0.862,-0.116 -1.1,-0.054 -2.201,-0.134 -3.301,-0.122 -1.054,0.011 -2.097,0.185 -3.117,0.474 -0.853,0.244 -1.688,0.539 -2.454,0.988 -0.327,0.192 -0.587,0.156 -0.926,0.059 -1.137,-0.333 -2.285,-0.632 -3.44,-0.895 -0.721,-0.162 -1.462,-0.243 -2.199,-0.319 -0.706,-0.073 -1.415,-0.117 -2.125,-0.132 -0.693,-0.015 -1.391,-0.015 -2.081,0.047 -1.099,0.097 -2.176,0.321 -3.224,0.681 -1.156,0.395 -2.235,0.984 -3.1923,1.742 -0.9765,0.773 -1.76,1.715 -2.3889,2.793 -0.6635,1.136 -1.1194,2.353 -1.4018,3.631 -0.1535,0.692 -0.0971,1.404 -0.2026,2.107 -0.0323,0.218 0.033,0.437 0.033,0.656 v 3.06 c 0,0.204 -0.0598,0.407 -0.0341,0.611 0.0631,0.491 0.0413,0.985 0.1245,1.473 0.1305,0.771 0.2483,1.539 0.4068,2.305 0.2215,1.07 0.433,2.138 0.6785,3.203 0.1786,0.775 0.3722,1.546 0.5849,2.312 0.3236,1.171 0.6395,2.343 1.0061,3.5 0.341,1.075 0.7293,2.135 1.1172,3.195 0.5314,1.466 1.1827,2.886 1.9477,4.245 0.667,1.178 1.427,2.281 2.448,3.188 0.674,0.598 1.422,1.058 2.293,1.288 0.681,0.18 1.394,0.2 2.084,0.058 0.799,-0.163 1.546,-0.52 2.173,-1.041 0.074,-0.06 0.154,-0.106 0.241,0.004 0.332,0.42 0.775,0.7 1.239,0.942 1.251,0.653 2.614,0.849 3.998,0.928 0.336,0.019 0.674,-0.029 1.012,-0.038 0.659,-0.019 1.299,-0.147 1.928,-0.329 0.33,-0.095 0.652,-0.217 0.988,-0.33 0.017,0.358 0.039,0.702 0.051,1.046 l 0.046,1.877 c 0.009,0.286 0.02,0.571 0.046,0.856 0.068,0.733 0.135,1.466 0.222,2.197 0.061,0.504 0.124,1.012 0.243,1.504 0.237,0.992 0.563,1.96 0.972,2.895 0.391,0.907 0.993,1.707 1.756,2.335 z m -2.004,-9.358 c -0.039,-0.881 -0.069,-1.762 -0.088,-2.644 -0.024,-1.084 -0.032,-2.168 -0.047,-3.252 l -0.002,-0.041 c -0.551,0.331 -1.094,0.693 -1.668,0.991 -0.674,0.35 -1.405,0.553 -2.162,0.61 -0.593,0.045 -1.196,0.085 -1.786,0.039 -0.969,-0.079 -1.937,-0.23 -2.805,-0.708 -0.351,-0.194 -0.718,-0.43 -0.961,-0.738 -0.581,-0.742 -0.303,-1.679 0.574,-2.13 0.605,-0.312 1.266,-0.442 1.922,-0.594 0.571,-0.13 1.137,-0.284 1.694,-0.463 0.55,-0.181 0.898,-0.627 1.241,-1.065 l 0.543,-0.699 -0.653,-0.068 c -0.649,-0.06 -1.268,-0.239 -1.859,-0.501 -0.506,-0.224 -0.513,-0.249 -0.885,0.154 -0.62,0.673 -1.222,1.362 -1.83,2.046 -0.447,0.503 -0.891,1.009 -1.336,1.514 -0.44,0.5 -0.853,1.027 -1.328,1.491 -0.704,0.69 -1.554,1.105 -2.567,1.058 -0.65,-0.03 -1.245,-0.258 -1.781,-0.63 -1.104,-0.769 -1.848,-1.846 -2.526,-2.976 -0.868,-1.449 -1.534,-2.992 -2.104,-4.577 -0.3947,-1.096 -0.7915,-2.192 -1.1352,-3.304 -0.3745,-1.208 -0.7032,-2.43 -1.0263,-3.653 -0.2444,-0.923 -0.4609,-1.853 -0.6674,-2.785 -0.2377,-1.059 -0.4576,-2.122 -0.6596,-3.189 -0.1345,-0.72 -0.212,-1.451 -0.3208,-2.176 -0.1468,-0.978 -0.1736,-1.965 -0.12,-2.946 0.0474,-0.885 0.1741,-1.766 0.3002,-2.645 0.1747,-1.215 0.5753,-2.362 1.1512,-3.445 0.3553,-0.66 0.7907,-1.274 1.2963,-1.827 0.8315,-0.92 1.8376,-1.585 2.9566,-2.084 0.782,-0.349 1.609,-0.558 2.451,-0.723 1.25,-0.243 2.511,-0.233 3.772,-0.207 0.551,0.011 1.101,0.111 1.652,0.166 1.186,0.118 2.349,0.368 3.497,0.676 0.837,0.224 1.656,0.515 2.486,0.767 0.082,0.026 0.204,0.023 0.273,-0.021 1.125,-0.734 2.353,-1.218 3.66,-1.496 0.496,-0.105 1.009,-0.151 1.516,-0.183 0.616,-0.039 1.238,-0.076 1.853,-0.039 0.739,0.042 1.477,0.151 2.212,0.251 0.357,0.049 0.705,0.173 1.062,0.206 0.172,0.016 0.353,-0.108 0.534,-0.151 0.923,-0.213 1.842,-0.45 2.774,-0.618 0.693,-0.125 1.401,-0.185 2.106,-0.225 0.786,-0.045 1.578,-0.078 2.363,-0.04 0.994,0.048 1.98,0.189 2.953,0.416 1.206,0.28 2.363,0.688 3.463,1.254 0.822,0.423 1.602,0.913 2.306,1.516 0.461,0.396 0.933,0.786 1.349,1.226 0.513,0.544 1.037,1.087 1.359,1.783 0.243,0.525 0.416,1.068 0.464,1.643 0.059,0.715 0.131,1.432 0.125,2.148 -0.006,0.684 -0.1,1.367 -0.166,2.05 -0.151,1.556 -0.489,3.078 -0.9,4.581 -0.343,1.241 -0.732,2.468 -1.166,3.68 -0.395,1.118 -0.852,2.215 -1.314,3.309 -0.34,0.809 -0.709,1.606 -1.107,2.388 -0.756,1.48 -1.541,2.945 -2.45,4.34 -0.157,0.241 -0.306,0.487 -0.459,0.734 0.397,0.267 0.846,0.361 1.298,0.41 0.43,0.047 0.869,0.075 1.298,0.043 0.688,-0.052 1.374,-0.15 2.058,-0.245 0.678,-0.095 1.341,-0.288 2.038,-0.237 0.694,0.051 1.192,0.579 1.144,1.229 -0.03,0.412 -0.219,0.766 -0.492,1.067 -1.292,1.426 -2.914,2.289 -4.769,2.715 -0.705,0.162 -1.431,0.245 -2.153,0.313 -0.616,0.054 -1.235,0.069 -1.853,0.043 -0.453,-0.016 -0.902,-0.12 -1.365,-0.187 -0.047,0.423 -0.091,0.865 -0.145,1.304 l -0.216,1.687 c -0.065,0.535 -0.116,1.072 -0.184,1.606 -0.065,0.519 -0.147,1.036 -0.217,1.554 -0.064,0.483 -0.111,0.968 -0.184,1.45 -0.11,0.739 -0.215,1.48 -0.36,2.213 -0.173,0.876 -0.437,1.724 -0.871,2.515 -0.528,0.965 -1.276,1.7 -2.229,2.244 -0.982,0.561 -2.056,0.853 -3.144,1.097 -0.771,0.174 -1.564,0.201 -2.345,0.131 -1.353,-0.123 -2.508,-0.701 -3.382,-1.751 -0.833,-1.002 -1.397,-2.149 -1.598,-3.449 -0.095,-0.618 -0.169,-1.239 -0.221,-1.863 -0.061,-0.693 -0.106,-1.387 -0.137,-2.083 z m 1.522,-8.902 c 0.008,0.463 -0.04,0.926 -0.038,1.389 0.01,2.156 0.025,4.312 0.044,6.468 0.003,0.352 0.02,0.706 0.046,1.057 0.053,0.737 0.105,1.474 0.176,2.208 0.052,0.522 0.122,1.042 0.204,1.56 0.117,0.733 0.45,1.386 0.829,2.01 0.326,0.537 0.75,0.992 1.309,1.307 0.95,0.534 1.971,0.579 3.002,0.382 0.695,-0.132 1.38,-0.346 2.055,-0.566 0.664,-0.213 1.271,-0.576 1.773,-1.061 0.474,-0.459 0.81,-1.018 1.037,-1.636 0.439,-1.198 0.577,-2.459 0.758,-3.71 0.068,-0.469 0.127,-0.939 0.189,-1.408 0.071,-0.534 0.142,-1.068 0.21,-1.602 0.052,-0.398 0.098,-0.796 0.146,-1.194 0.07,-0.572 0.143,-1.142 0.209,-1.714 0.051,-0.442 0.094,-0.885 0.139,-1.329 0.058,-0.566 0.12,-1.131 0.171,-1.698 0.038,-0.43 0.022,-0.868 0.099,-1.29 0.14,-0.774 0.506,-1.433 1.192,-1.859 0.287,-0.178 0.612,-0.295 0.93,-0.446 l -0.055,-0.083 c -0.294,-0.381 -0.595,-0.757 -0.884,-1.143 -0.453,-0.606 -0.779,-1.282 -1.106,-1.961 -0.31,-0.644 -0.69,-1.253 -1.016,-1.89 -0.57,-1.111 -1.15,-2.218 -1.676,-3.349 -0.66,-1.423 -1.18,-2.896 -1.343,-4.471 -0.07,-0.667 -0.088,-1.333 0.048,-1.993 0.216,-1.055 0.766,-1.88 1.692,-2.445 0.86,-0.525 1.817,-0.695 2.797,-0.748 0.608,-0.033 1.221,-0.006 1.852,-0.006 l -0.021,-0.106 c -0.393,-0.822 -0.759,-1.657 -1.19,-2.459 -0.606,-1.131 -1.382,-2.151 -2.246,-3.098 -0.638,-0.704 -1.338,-1.349 -2.093,-1.926 -0.747,-0.565 -1.533,-1.07 -2.373,-1.482 -0.998,-0.497 -2.052,-0.871 -3.139,-1.116 -1.052,-0.234 -2.109,-0.376 -3.188,-0.388 -0.92,-0.01 -1.834,0.032 -2.73,0.239 -1.353,0.313 -2.59,0.87 -3.665,1.772 -0.596,0.499 -1.128,1.07 -1.585,1.699 -0.539,0.739 -0.973,1.539 -1.345,2.377 -0.51,1.15 -0.86,2.346 -1.1,3.576 -0.119,0.614 -0.213,1.231 -0.309,1.849 -0.033,0.217 -0.035,0.438 -0.055,0.686 l 0.408,-0.213 0.399,-0.178 c 1.348,-0.617 2.745,-1.014 4.246,-0.968 0.639,0.019 1.248,0.145 1.816,0.425 1.088,0.537 1.724,1.449 2.001,2.603 0.191,0.797 0.322,1.609 0.449,2.42 0.1,0.633 0.202,1.273 0.213,1.911 0.016,0.933 -0.031,1.868 -0.081,2.801 -0.044,0.793 -0.208,1.574 -0.487,2.318 -0.505,1.348 -1.067,2.674 -1.592,4.015 -0.174,0.443 -0.307,0.901 -0.471,1.388 l 0.663,0.001 c 0.081,10e-4 0.163,0.004 0.24,0.022 0.604,0.142 1.128,0.416 1.557,0.88 0.573,0.616 0.874,1.337 0.889,2.173 z m -11.522,-6.393 c -0.342,-0.804 -0.548,-1.66 -0.611,-2.532 -0.058,-0.823 0.04,-1.641 0.125,-2.46 0.081,-0.793 0.15,-1.59 0.174,-2.385 0.04,-1.31 -0.049,-2.617 -0.111,-3.925 -0.038,-0.779 0.053,-1.568 0.122,-2.348 0.063,-0.704 0.141,-1.408 0.274,-2.101 0.223,-1.163 0.519,-2.31 0.94,-3.421 0.399,-1.053 0.859,-2.078 1.507,-3.002 0.444,-0.634 0.948,-1.225 1.431,-1.844 l -0.144,-0.051 c -1.575,-0.5 -3.176,-0.892 -4.824,-1.062 -0.779,-0.081 -1.561,-0.128 -2.341,-0.175 -0.24,-0.014 -0.484,0.018 -0.724,0.041 -0.595,0.058 -1.199,0.08 -1.785,0.192 -0.997,0.189 -1.954,0.509 -2.839,1.028 -0.784,0.461 -1.471,1.07 -2.0239,1.792 -0.6178,0.798 -1.0346,1.701 -1.3332,2.663 -0.3527,1.136 -0.5212,2.305 -0.5664,3.484 -0.0396,1.034 -0.0591,2.074 0.1194,3.104 0.1323,0.766 0.221,1.541 0.3672,2.305 0.1966,1.042 0.4172,2.079 0.6619,3.11 0.3532,1.476 0.707,2.952 1.126,4.41 0.401,1.395 0.852,2.779 1.343,4.146 0.401,1.116 0.865,2.21 1.353,3.29 0.318,0.704 0.703,1.381 1.107,2.04 0.429,0.7 0.918,1.364 1.58,1.871 0.836,0.641 1.483,0.741 2.334,0.037 0.363,-0.3 0.671,-0.673 0.988,-1.028 0.503,-0.562 0.988,-1.141 1.489,-1.707 0.638,-0.719 1.284,-1.431 1.925,-2.148 0.136,-0.151 0.267,-0.308 0.398,-0.46 l -0.219,-0.192 c -0.791,-0.755 -1.418,-1.664 -1.843,-2.672 z m 24.186,-21.43 c 0.524,0.609 1.022,1.241 1.491,1.894 0.899,1.261 1.623,2.638 2.151,4.094 0.234,0.644 0.422,1.295 0.338,2 -0.058,0.494 -0.054,0.994 -0.097,1.491 -0.036,0.413 -0.102,0.824 -0.155,1.235 -0.08,0.621 -0.196,1.24 -0.231,1.864 -0.034,0.593 0.002,1.193 0.039,1.787 0.037,0.604 0.119,1.206 0.174,1.809 0.063,0.684 0.147,1.367 0.166,2.053 0.016,0.563 -0.034,1.128 -0.083,1.69 -0.062,0.674 -0.226,1.335 -0.485,1.96 -0.181,0.443 -0.395,0.872 -0.598,1.315 l 0.082,0.086 0.123,0.096 0.126,-0.223 c 1.054,-1.658 1.99,-3.388 2.802,-5.177 0.52,-1.155 1.014,-2.322 1.481,-3.499 0.728,-1.831 1.315,-3.714 1.758,-5.633 0.201,-0.861 0.355,-1.736 0.491,-2.611 0.107,-0.685 0.195,-1.377 0.215,-2.067 0.021,-0.732 -0.019,-1.47 -0.087,-2.2 -0.051,-0.551 -0.187,-1.106 -0.532,-1.555 -0.555,-0.721 -1.155,-1.411 -1.892,-1.958 -0.621,-0.459 -1.24,-0.931 -1.906,-1.318 -1.057,-0.613 -2.2,-1.02 -3.395,-1.298 -1.167,-0.272 -2.347,-0.389 -3.536,-0.414 -0.701,-0.015 -1.405,0.06 -2.104,0.126 -0.634,0.06 -1.264,0.161 -1.902,0.245 0.685,0.385 1.36,0.728 1.997,1.131 1.339,0.848 2.54,1.869 3.569,3.077 z m -17.4,23.752 c 0.433,-1.384 1.022,-2.707 1.593,-4.036 0.464,-1.079 0.717,-2.214 0.801,-3.382 0.042,-0.575 0.031,-1.158 0.002,-1.735 -0.027,-0.642 -0.086,-1.282 -0.176,-1.918 -0.12,-0.812 -0.256,-1.623 -0.448,-2.42 -0.208,-0.861 -0.733,-1.462 -1.632,-1.683 -0.548,-0.135 -1.092,-0.129 -1.647,-0.042 -1.352,0.213 -2.589,0.711 -3.742,1.441 -0.232,0.147 -0.361,0.266 -0.32,0.598 0.085,0.705 0.103,1.422 0.1,2.133 -0.005,1.007 -0.048,2.015 -0.086,3.021 -0.012,0.328 -0.059,0.655 -0.095,0.981 -0.054,0.5 -0.158,1 -0.155,1.499 0.004,0.515 0.056,1.041 0.181,1.539 0.397,1.581 1.236,2.873 2.613,3.786 0.847,0.561 1.783,0.843 2.811,0.897 0.068,-0.236 0.132,-0.458 0.2,-0.679 z m -1.616,-13.554 c -0.181,-0.38 -0.077,-0.696 0.342,-0.842 0.103,-0.035 0.208,-0.074 0.314,-0.084 0.147,-0.015 0.294,-0.004 0.442,-0.004 0.533,0.003 1.045,0.077 1.485,0.416 0.282,0.217 0.358,0.505 0.175,0.802 -0.26,0.42 -0.654,0.631 -1.14,0.671 -0.764,0.063 -1.3,-0.293 -1.618,-0.959 z m 21.191,-0.139 0.174,-1.521 c 0.025,-0.203 -0.081,-0.259 -0.252,-0.264 -0.538,-0.014 -1.074,-0.034 -1.612,-0.043 -0.605,-0.011 -1.195,0.086 -1.755,0.316 -0.621,0.256 -1.095,0.666 -1.288,1.343 -0.142,0.498 -0.187,1.02 -0.132,1.535 0.075,0.798 0.256,1.582 0.537,2.333 0.376,1 0.769,2 1.24,2.959 0.636,1.298 1.356,2.554 2.033,3.832 0.18,0.341 0.333,0.698 0.521,1.096 0.38,-0.792 0.587,-1.655 0.608,-2.533 0.019,-0.726 -0.039,-1.453 -0.081,-2.179 -0.027,-0.445 -0.09,-0.887 -0.133,-1.33 -0.059,-0.617 -0.151,-1.235 -0.165,-1.854 -0.014,-0.629 0.03,-1.262 0.084,-1.891 0.05,-0.601 0.149,-1.199 0.221,-1.799 z m -1.21,-0.488 c -0.2,0.551 -0.626,0.862 -1.18,0.953 -0.515,0.085 -0.967,-0.105 -1.303,-0.517 -0.24,-0.293 -0.148,-0.639 0.211,-0.838 0.412,-0.228 0.864,-0.285 1.398,-0.32 0.146,0.027 0.363,0.049 0.571,0.108 0.301,0.085 0.412,0.313 0.303,0.614 z m -15.959,16.966 c -0.294,-0.241 -0.685,-0.255 -0.965,0.009 -0.348,0.33 -0.655,0.706 -0.961,1.076 -0.353,0.429 -0.686,0.874 -1.141,1.206 -0.664,0.483 -1.439,0.683 -2.217,0.872 -0.618,0.15 -1.24,0.291 -1.86,0.435 l -0.007,0.08 c 0.184,0.085 0.362,0.191 0.554,0.252 0.946,0.299 1.909,0.449 2.909,0.364 0.721,-0.062 1.408,-0.219 2.059,-0.528 0.897,-0.425 1.588,-1.098 2.174,-1.881 0.098,-0.13 0.143,-0.323 0.154,-0.492 0.04,-0.595 -0.262,-1.037 -0.699,-1.393 z m 17.269,-0.258 c -0.464,0.156 -0.841,0.393 -0.953,0.895 -0.077,0.339 -0.105,0.69 -0.134,1.038 -0.006,0.061 0.071,0.174 0.129,0.189 0.357,0.095 0.716,0.206 1.081,0.239 0.449,0.04 0.906,0.027 1.358,0.005 0.488,-0.024 0.979,-0.056 1.46,-0.137 1.132,-0.19 2.228,-0.5 3.202,-1.142 0.351,-0.232 0.698,-0.469 1.048,-0.704 l -0.029,-0.05 c -0.373,0.055 -0.744,0.123 -1.118,0.163 -0.761,0.081 -1.522,0.167 -2.286,0.211 -0.369,0.021 -0.743,-0.05 -1.115,-0.08 -0.624,-0.05 -1.233,-0.189 -1.76,-0.523 -0.305,-0.192 -0.559,-0.213 -0.883,-0.104 z"
         fill="#fcfaff"
         id="path8" /><path
         d="m 88.7249,609.723 c 0.8012,-0.13 1.6119,-0.193 2.4235,-0.188 1.2472,0 2.1619,0.29 2.7422,0.812 0.5369,0.464 0.856,1.175 0.856,2.046 0,0.885 -0.2617,1.582 -0.755,2.09 -0.6674,0.711 -1.7556,1.073 -2.9888,1.073 -0.3772,0 -0.7255,-0.014 -1.0151,-0.087 v 3.918 h -1.2628 z m 1.2628,4.716 c 0.2757,0.072 0.6239,0.101 1.0447,0.101 1.5228,0 2.452,-0.74 2.452,-2.089 0,-1.291 -0.9141,-1.915 -2.3069,-1.915 -0.5514,0 -0.9721,0.043 -1.1898,0.101 z m 12.4053,1.378 c 0,2.597 -1.8,3.729 -3.4974,3.729 -1.9006,0 -3.366,-1.393 -3.366,-3.613 0,-2.35 1.5379,-3.729 3.4821,-3.729 2.0173,0 3.3813,1.466 3.3813,3.613 z m -5.5716,0.072 c 0,1.538 0.8851,2.699 2.1328,2.699 1.2188,0 2.1318,-1.146 2.1318,-2.728 0,-1.189 -0.594,-2.698 -2.1033,-2.698 -1.5095,0 -2.1613,1.393 -2.1613,2.727 z m 7.0076,2.191 c 0.377,0.247 1.044,0.508 1.683,0.508 0.928,0 1.364,-0.464 1.364,-1.045 0,-0.609 -0.363,-0.943 -1.306,-1.291 -1.263,-0.45 -1.857,-1.146 -1.857,-1.988 0,-1.131 0.914,-2.06 2.423,-2.06 0.711,0 1.335,0.203 1.727,0.435 l -0.319,0.929 c -0.432,-0.266 -0.93,-0.407 -1.437,-0.406 -0.754,0 -1.175,0.435 -1.175,0.957 0,0.581 0.421,0.842 1.335,1.19 1.219,0.464 1.843,1.074 1.843,2.118 0,1.234 -0.958,2.104 -2.626,2.104 -0.769,0 -1.48,-0.188 -1.973,-0.479 z m 7.458,-7.733 v 2.016 h 1.827 v 0.972 h -1.827 v 3.787 c 0,0.871 0.246,1.364 0.957,1.364 0.25,0.004 0.499,-0.026 0.74,-0.087 l 0.058,0.958 c -0.246,0.101 -0.638,0.174 -1.131,0.174 -0.595,0 -1.074,-0.189 -1.379,-0.537 -0.362,-0.377 -0.493,-1.001 -0.493,-1.828 v -3.831 h -1.088 v -0.972 h 1.088 v -1.683 z m 9.228,2.017 c -0.03,0.508 -0.059,1.073 -0.059,1.929 v 4.078 c 0,1.61 -0.319,2.597 -1.001,3.207 -0.682,0.638 -1.668,0.841 -2.553,0.841 -0.842,0 -1.77,-0.203 -2.337,-0.58 l 0.319,-0.972 c 0.465,0.29 1.19,0.551 2.061,0.551 1.306,0 2.263,-0.682 2.263,-2.452 v -0.784 h -0.029 c -0.392,0.653 -1.146,1.176 -2.234,1.176 -1.741,0 -2.989,-1.48 -2.989,-3.425 0,-2.379 1.552,-3.729 3.163,-3.729 1.219,0 1.887,0.639 2.191,1.219 h 0.029 l 0.058,-1.059 z m -1.321,2.771 c 0,-0.218 -0.014,-0.406 -0.072,-0.58 -0.232,-0.74 -0.856,-1.35 -1.785,-1.35 -1.219,0 -2.089,1.03 -2.089,2.655 0,1.379 0.696,2.525 2.075,2.525 0.783,0 1.494,-0.493 1.77,-1.306 0.072,-0.217 0.102,-0.464 0.102,-0.682 z m 3.293,-0.58 c 0,-0.827 -0.014,-1.538 -0.058,-2.191 h 1.118 l 0.043,1.378 h 0.058 c 0.319,-0.943 1.088,-1.538 1.944,-1.538 0.145,0 0.246,0.015 0.362,0.044 v 1.204 c -0.143,-0.031 -0.288,-0.046 -0.434,-0.044 -0.9,0 -1.539,0.682 -1.713,1.64 -0.035,0.196 -0.055,0.395 -0.058,0.595 v 3.743 h -1.262 z m 5.311,1.552 c 0.029,1.727 1.131,2.438 2.408,2.438 0.915,0 1.465,-0.16 1.944,-0.363 l 0.218,0.914 c -0.45,0.203 -1.219,0.435 -2.336,0.435 -2.162,0 -3.453,-1.422 -3.453,-3.54 0,-2.118 1.247,-3.787 3.293,-3.787 2.293,0 2.902,2.016 2.902,3.308 0,0.261 -0.029,0.464 -0.044,0.595 z m 3.743,-0.914 c 0.014,-0.812 -0.334,-2.075 -1.77,-2.075 -1.291,0 -1.857,1.19 -1.959,2.075 z m 2.684,2.655 c 0.684,0.411 1.465,0.631 2.263,0.639 1.292,0 2.046,-0.682 2.046,-1.669 0,-0.914 -0.522,-1.436 -1.843,-1.944 -1.596,-0.566 -2.582,-1.393 -2.582,-2.771 0,-1.524 1.262,-2.655 3.163,-2.655 1.001,0 1.726,0.232 2.162,0.478 l -0.349,1.03 c -0.57,-0.306 -1.209,-0.466 -1.857,-0.464 -1.335,0 -1.842,0.798 -1.842,1.466 0,0.914 0.594,1.363 1.944,1.886 1.654,0.639 2.495,1.436 2.495,2.872 0,1.509 -1.117,2.815 -3.424,2.815 -0.943,0 -1.973,-0.275 -2.496,-0.624 z m 15.394,2.975 c -1.261,-0.331 -2.51,-0.709 -3.743,-1.132 -0.204,-0.073 -0.407,-0.145 -0.595,-0.145 -2.322,-0.087 -4.309,-1.799 -4.309,-4.948 0,-3.134 1.915,-5.15 4.555,-5.15 2.655,0 4.383,2.06 4.383,4.947 0,2.51 -1.161,4.121 -2.786,4.686 v 0.058 c 0.972,0.247 2.031,0.479 2.858,0.624 z m -1.045,-6.37 c 0,-1.959 -1.015,-3.976 -3.09,-3.976 -2.133,0 -3.178,1.973 -3.163,4.092 -0.015,2.075 1.132,3.947 3.105,3.947 2.017,0 3.148,-1.829 3.148,-4.063 z m 2.974,-4.846 h 1.263 v 8.72 h 4.178 v 1.059 h -5.441 z"
         fill="#fcfaff"
         id="path9" /><rect
         x="75"
         y="417"
         width="95"
         height="95"
         rx="20"
         fill="#222222"
         fill-opacity="0.35"
         id="rect9" /><rect
         x="76"
         y="418"
         width="93"
         height="93"
         rx="19"
         stroke="#fcfaff"
         stroke-opacity="0.25"
         stroke-width="2"
         id="rect10" /><g
         clip-path="url(#clip0_0_1)"
         id="g11"><path
           d="m 122.857,471.219 c 3.514,0 6.362,-2.848 6.362,-6.362 0,-3.513 -2.848,-6.361 -6.362,-6.361 -3.513,0 -6.361,2.848 -6.361,6.361 0,3.514 2.848,6.362 6.361,6.362 z"
           fill="#fcfaff"
           id="path10" /><path
           d="m 147.02,454.366 c -1.228,-0.446 -2.511,-0.893 -3.85,-1.283 0.334,-1.34 0.613,-2.679 0.837,-3.962 1.172,-7.367 -0.112,-12.556 -3.683,-14.565 -1.061,-0.614 -2.232,-0.893 -3.572,-0.893 -3.906,0 -8.873,2.902 -13.895,7.757 -5.022,-4.855 -9.989,-7.757 -13.895,-7.757 -1.339,0 -2.511,0.279 -3.571,0.893 -3.572,2.065 -4.855,7.254 -3.683,14.565 0.223,1.283 0.502,2.622 0.837,3.962 -1.34,0.39 -2.6231,0.781 -3.8508,1.283 -6.9755,2.679 -10.7701,6.362 -10.7701,10.491 0,4.13 3.8504,7.813 10.7701,10.491 1.2277,0.447 2.5108,0.893 3.8508,1.284 -0.335,1.339 -0.614,2.678 -0.837,3.962 -1.172,7.366 0.111,12.556 3.683,14.564 1.06,0.614 2.232,0.893 3.571,0.893 3.962,0 8.929,-2.901 13.895,-7.756 5.022,4.855 9.989,7.756 13.895,7.756 1.34,0 2.511,-0.279 3.572,-0.893 3.571,-2.064 4.855,-7.254 3.683,-14.564 -0.224,-1.284 -0.503,-2.623 -0.837,-3.962 1.339,-0.391 2.622,-0.782 3.85,-1.284 6.976,-2.678 10.77,-6.361 10.77,-10.491 0,-4.129 -3.794,-7.812 -10.77,-10.491 z m -8.259,-17.02 c 2.288,1.339 3.069,5.469 2.121,11.328 -0.168,1.172 -0.447,2.4 -0.782,3.683 -2.901,-0.669 -5.971,-1.116 -9.207,-1.395 -1.897,-2.679 -3.851,-5.078 -5.804,-7.254 4.13,-4.074 8.315,-6.864 11.719,-6.864 0.725,0 1.395,0.167 1.953,0.502 z m -6.25,33.092 c -1.004,1.785 -2.176,3.571 -3.404,5.357 -2.065,0.167 -4.129,0.223 -6.25,0.223 -2.176,0 -4.241,-0.056 -6.25,-0.223 -1.228,-1.786 -2.344,-3.572 -3.348,-5.357 -1.06,-1.842 -2.065,-3.739 -2.958,-5.581 0.893,-1.841 1.898,-3.739 2.958,-5.58 1.004,-1.786 2.176,-3.572 3.404,-5.357 2.065,-0.168 4.129,-0.224 6.25,-0.224 2.176,0 4.241,0.056 6.25,0.224 1.228,1.785 2.344,3.571 3.348,5.357 1.06,1.841 2.065,3.739 2.958,5.58 -0.949,1.842 -1.898,3.683 -2.958,5.581 z m 4.632,-1.842 c 0.837,1.953 1.507,3.85 2.12,5.748 -1.897,0.446 -3.906,0.781 -6.026,1.06 0.669,-1.06 1.395,-2.176 2.009,-3.348 0.669,-1.172 1.283,-2.344 1.897,-3.46 z m -14.286,15.123 c -1.339,-1.451 -2.623,-3.014 -3.85,-4.632 1.283,0.056 2.567,0.112 3.85,0.112 1.284,0 2.567,-0.056 3.851,-0.112 -1.228,1.618 -2.512,3.181 -3.851,4.632 z m -10.379,-8.371 c -2.121,-0.279 -4.13,-0.614 -6.027,-1.06 0.614,-1.842 1.283,-3.795 2.12,-5.748 0.614,1.116 1.228,2.288 1.898,3.404 0.669,1.228 1.339,2.288 2.009,3.404 z m -3.907,-14.23 c -0.837,-1.953 -1.506,-3.85 -2.12,-5.747 1.897,-0.447 3.906,-0.782 6.027,-1.061 -0.67,1.061 -1.395,2.177 -2.009,3.348 -0.67,1.172 -1.284,2.344 -1.898,3.46 z m 14.286,-15.122 c 1.339,1.45 2.623,3.013 3.851,4.631 -1.284,-0.056 -2.567,-0.111 -3.851,-0.111 -1.283,0 -2.567,0.055 -3.85,0.111 1.227,-1.618 2.511,-3.181 3.85,-4.631 z m 12.389,11.718 -2.009,-3.348 c 2.12,0.279 4.129,0.614 6.026,1.06 -0.613,1.842 -1.283,3.795 -2.12,5.748 -0.614,-1.172 -1.228,-2.344 -1.897,-3.46 z m -30.413,-9.04 c -0.949,-5.859 -0.168,-9.989 2.12,-11.328 0.558,-0.335 1.228,-0.502 1.953,-0.502 3.348,0 7.534,2.734 11.719,6.864 -1.953,2.12 -3.906,4.575 -5.804,7.254 -3.236,0.279 -6.305,0.781 -9.207,1.395 -0.335,-1.283 -0.558,-2.511 -0.781,-3.683 z m -13.7839,16.183 c 0,-2.623 3.1808,-5.413 8.7612,-7.478 1.1157,-0.446 2.3437,-0.837 3.5717,-1.171 0.893,2.79 2.009,5.747 3.348,8.705 -1.339,2.958 -2.511,5.859 -3.348,8.65 -7.7012,-2.233 -12.3329,-5.581 -12.3329,-8.706 z m 15.9039,27.511 c -2.288,-1.339 -3.069,-5.468 -2.12,-11.328 0.167,-1.172 0.446,-2.399 0.781,-3.683 2.902,0.67 5.971,1.116 9.207,1.395 1.898,2.679 3.851,5.078 5.804,7.255 -4.129,4.073 -8.315,6.864 -11.719,6.864 -0.725,0 -1.395,-0.168 -1.953,-0.503 z m 33.929,-11.328 c 0.948,5.86 0.167,9.989 -2.121,11.328 -0.558,0.335 -1.228,0.503 -1.953,0.503 -3.348,0 -7.533,-2.735 -11.719,-6.864 1.953,-2.121 3.907,-4.576 5.804,-7.255 3.236,-0.279 6.306,-0.781 9.207,-1.395 0.335,1.284 0.558,2.511 0.782,3.683 z m 5.022,-8.705 c -1.116,0.446 -2.344,0.837 -3.571,1.172 -0.893,-2.79 -2.009,-5.748 -3.349,-8.706 1.34,-2.957 2.512,-5.859 3.349,-8.649 7.7,2.232 12.332,5.58 12.332,8.705 0,2.623 -3.236,5.413 -8.761,7.478 z"
           fill="#fcfaff"
           id="path11" /></g><rect
         x="520"
         y="417"
         width="95"
         height="95"
         rx="20"
         fill="#222222"
         fill-opacity="0.35"
         id="rect11" /><rect
         x="521"
         y="418"
         width="93"
         height="93"
         rx="19"
         stroke="#fcfaff"
         stroke-opacity="0.25"
         stroke-width="2"
         id="rect12" /><g
         clip-path="url(#clip1_0_1)"
         id="g12"><path
           d="m 601.786,458.216 c -2.4,-1.395 -5.581,-1.562 -8.259,-0.781 -0.335,-2.902 -2.232,-5.413 -4.464,-7.198 l -0.893,-0.726 -0.782,0.893 c -1.506,1.73 -1.953,4.632 -1.729,6.864 0.167,1.618 0.669,3.292 1.674,4.631 -0.782,0.447 -1.619,1.061 -2.4,1.34 -1.562,0.558 -3.292,1.116 -4.966,1.116 h -3.739 v -7.868 h -7.255 v -13.951 h -8.37 v 6.696 h -13.951 v 7.255 h -7.255 v 7.812 h -6.25 l -0.111,0.837 c -0.279,3.572 0.167,7.031 1.674,10.324 l 0.614,1.227 0.056,0.112 c 4.408,7.478 12.109,10.603 20.535,10.603 16.295,0 29.744,-7.311 35.882,-22.657 4.129,0.224 8.37,-1.004 10.379,-4.966 l 0.503,-1.005 z m -54.018,-7.31 h 5.58 v 6.139 h -5.58 z m 7.31,24.665 c 0,0.949 -0.781,1.73 -1.73,1.73 -0.948,0 -1.73,-0.781 -1.73,-1.73 0,-0.948 0.782,-1.73 1.73,-1.73 0.949,0.056 1.73,0.782 1.73,1.73 z m -7.31,-17.41 h 5.58 v 6.138 h -5.58 z m -7.255,0 h 6.139 v 6.138 h -6.139 z m 15.458,28.013 c -8.817,-0.056 -13.56,-3.013 -17.466,-6.92 1.171,0.056 2.287,0.112 3.292,0.112 0.893,0 1.786,0 2.623,-0.056 2.176,-0.111 4.073,-0.39 5.636,-0.837 1.283,2.958 3.627,5.692 7.812,7.701 z m 4.632,-21.875 h -6.139 v -6.138 h 6.139 z m 0,-7.254 h -6.139 v -6.139 h 6.139 z m 7.254,7.254 h -6.138 v -6.138 h 6.138 z m 0,-7.254 h -6.138 v -6.139 h 6.138 z m 0,-7.255 h -6.138 v -6.138 h 6.138 z m 7.255,14.509 h -6.139 v -6.138 h 6.139 z m -21.317,10.156 c -0.112,-0.056 -0.279,-0.111 -0.447,-0.111 -0.669,0 -1.227,0.558 -1.227,1.227 0,0.67 0.558,1.228 1.227,1.228 0.67,0 1.228,-0.558 1.228,-1.228 0,-0.167 -0.056,-0.334 -0.112,-0.446 -0.111,0.167 -0.223,0.279 -0.446,0.279 -0.279,0 -0.502,-0.223 -0.502,-0.502 0.055,-0.224 0.167,-0.391 0.279,-0.447 z"
           fill="#fcfaff"
           id="path12" /></g><rect
         x="198"
         y="218"
         width="294"
         height="294"
         rx="20"
         fill="#222222"
         fill-opacity="0.35"
         id="rect13" /><rect
         x="199"
         y="219"
         width="292"
         height="292"
         rx="19"
         stroke="#fcfaff"
         stroke-opacity="0.25"
         stroke-width="2"
         id="rect14" /><path
         d="m 438.498,313.433 0.518,-0.346 c -1.036,-1.899 -2.59,-3.626 -4.144,-4.49 l -83.413,-48.01 c -1.382,-0.863 -3.281,-1.209 -5.354,-1.209 -2.072,0 -3.972,0.518 -5.353,1.209 l -82.895,48.183 c -2.936,1.727 -5.008,6.044 -5.008,9.325 v 96.193 c 0,1.9 0.345,3.972 1.554,5.872 l -0.345,0.172 c 0.863,1.382 2.072,2.591 3.281,3.282 l 83.24,48.182 c 1.382,0.864 3.281,1.209 5.354,1.209 2.072,0 3.972,-0.518 5.353,-1.209 l 82.895,-48.182 c 2.936,-1.727 5.008,-6.045 5.008,-9.326 v -96.365 c 0.173,-1.382 0,-2.936 -0.691,-4.49 z m -92.393,120.888 c -37.648,0 -68.215,-30.568 -68.215,-68.216 0,-37.648 30.567,-68.215 68.215,-68.215 25.387,0 47.492,13.988 59.235,34.539 l -22.45,12.953 c -7.253,-12.953 -21.069,-21.588 -36.785,-21.588 -23.314,0 -42.311,18.997 -42.311,42.311 0,23.314 18.997,42.311 42.311,42.311 15.716,0 29.532,-8.635 36.785,-21.414 l 22.278,13.125 c -11.744,20.378 -33.849,34.194 -59.063,34.194 z m 88.076,-71.67 h -5.526 l -1.555,6.908 h 7.081 v 8.635 h -8.635 l -2.072,10.362 h -8.462 l 2.072,-10.362 h -6.563 l -2.072,10.362 h -8.289 l 2.072,-10.362 h -4.318 v -8.635 h 6.045 l 1.554,-6.908 h -7.599 v -8.635 h 9.153 l 2.073,-10.361 h 8.462 l -2.072,10.361 h 6.562 l 2.072,-10.361 h 8.29 l -2.072,10.361 h 3.799 z m -21.933,6.908 h 6.563 l 1.554,-6.908 h -6.562 z"
         fill="#fcfaff"
         id="path14" /><rect
         y="218"
         width="171"
         height="171"
         rx="20"
         fill="#222222"
         fill-opacity="0.35"
         id="rect15"
         x="0" /><rect
         x="1"
         y="219"
         width="169"
         height="169"
         rx="19"
         stroke="#fcfaff"
         stroke-opacity="0.25"
         stroke-width="2"
         id="rect16" /><path
         fill-rule="evenodd"
         clip-rule="evenodd"
         d="m 84.4061,250.786 c -0.1898,0.11 -0.9863,1.253 -1.7708,2.54 -1.9688,3.231 -1.9909,3.233 -4.6356,0.45 -1.7207,-1.81 -2.1365,-2.141 -2.691,-2.137 -0.3606,0.002 -0.8156,0.124 -1.0125,0.272 -0.1959,0.147 -0.7513,1.323 -1.2335,2.611 -1.1039,2.953 -1.1571,3.048 -1.7688,3.165 -0.3767,0.072 -1.1019,-0.332 -2.8407,-1.581 -1.2837,-0.923 -2.5433,-1.677 -2.7984,-1.677 -1.0587,0 -1.357,0.579 -1.8613,3.609 -0.6408,3.853 -0.6187,3.84 -4.0922,2.262 -1.4022,-0.636 -2.7321,-1.157 -2.9561,-1.157 -0.224,0 -0.6489,0.241 -0.9432,0.535 -0.5344,0.536 -0.5354,0.538 -0.3897,3.484 l 0.1466,2.949 -0.5574,0.298 c -0.4942,0.264 -0.8348,0.232 -3.0225,-0.285 -2.8557,-0.674 -3.4583,-0.656 -4.0369,0.123 l -0.4229,0.568 0.5675,2.432 c 0.3114,1.337 0.6117,2.625 0.668,2.861 0.0552,0.235 -0.0402,0.611 -0.213,0.835 -0.2852,0.369 -0.5886,0.402 -3.2313,0.362 -4.4729,-0.07 -4.727,0.313 -2.8788,4.347 0.5876,1.281 1.0687,2.444 1.0687,2.584 0,0.737 -0.5876,1.005 -3.1118,1.417 -1.4123,0.23 -2.6397,0.419 -2.7281,0.419 -0.0884,0 -0.3536,0.193 -0.5886,0.428 -0.7684,0.768 -0.5505,1.489 1.1923,3.949 2.1706,3.064 2.1666,3.075 -1.4193,4.447 -4.0782,1.56 -4.1605,1.945 -1.0557,4.89 2.8918,2.742 2.8948,2.702 -0.3787,4.76 -2.48,1.558 -2.5182,1.595 -2.5815,2.44 -0.0763,1.027 -0.0582,1.045 2.9029,2.854 2.928,1.788 2.928,1.843 0.0543,4.562 -3.0908,2.923 -2.9954,3.35 1.0858,4.889 3.5658,1.345 3.5709,1.362 1.3962,4.425 -1.2325,1.737 -1.6252,2.46 -1.6252,2.996 0,1.004 0.5223,1.26 3.6432,1.784 2.6286,0.443 3.2142,0.704 3.2142,1.429 0,0.148 -0.4821,1.322 -1.0717,2.605 -1.8342,3.995 -1.6252,4.328 2.716,4.328 4.043,0 3.9355,-0.124 3.0647,3.522 -0.6569,2.748 -0.667,3.275 -0.0724,3.868 0.4551,0.456 1.3129,0.405 3.9958,-0.237 2.0491,-0.489 2.4087,-0.523 2.8838,-0.269 l 0.5424,0.29 -0.1466,2.949 c -0.1457,2.947 -0.1447,2.949 0.3897,3.484 0.2943,0.294 0.7252,0.535 0.9563,0.535 0.231,0 1.5609,-0.518 2.9561,-1.152 3.4624,-1.572 3.4403,-1.585 4.0791,2.256 0.5063,3.045 0.8016,3.61 1.8824,3.61 0.2682,0 1.5007,-0.723 2.7402,-1.607 2.1767,-1.553 2.7412,-1.796 3.3207,-1.427 0.1497,0.094 0.7303,1.37 1.2898,2.834 0.8226,2.154 1.124,2.715 1.582,2.934 0.8719,0.417 1.4113,0.082 3.4604,-2.15 2.474,-2.695 2.5754,-2.682 4.5954,0.592 2.2309,3.614 2.8085,3.606 5.0957,-0.074 1.9707,-3.17 1.9476,-3.168 4.6114,-0.385 1.7689,1.846 2.1456,2.14 2.7422,2.14 0.3807,0 0.8357,-0.143 1.0095,-0.317 0.1748,-0.175 0.7534,-1.466 1.2857,-2.868 0.5324,-1.403 1.0839,-2.625 1.2265,-2.715 0.5635,-0.359 1.1471,-0.107 3.3206,1.436 1.28,0.909 2.484,1.607 2.77,1.607 1.063,0 1.447,-0.754 1.889,-3.719 0.378,-2.528 0.454,-2.77 0.951,-3.023 0.489,-0.248 0.783,-0.164 3.077,0.877 1.395,0.633 2.725,1.151 2.956,1.151 0.231,0 0.669,-0.248 0.971,-0.551 l 0.552,-0.55 -0.152,-2.828 c -0.145,-2.7 -0.132,-2.845 0.299,-3.234 0.443,-0.401 0.488,-0.399 2.965,0.166 3,0.685 3.559,0.703 4.123,0.14 0.55,-0.551 0.544,-0.671 -0.209,-3.848 -0.845,-3.564 -0.958,-3.437 3.102,-3.437 2.767,0 3.075,-0.04 3.428,-0.428 0.589,-0.651 0.449,-1.397 -0.735,-3.921 -0.598,-1.271 -1.083,-2.429 -1.079,-2.571 0.02,-0.751 0.61,-1.007 3.335,-1.45 1.667,-0.27 2.915,-0.583 3.141,-0.787 0.757,-0.684 0.479,-1.574 -1.25,-3.998 -2.167,-3.037 -2.158,-3.067 1.312,-4.345 4.154,-1.531 4.273,-2.041 1.164,-4.995 -2.88,-2.737 -2.881,-2.722 0.273,-4.658 3.813,-2.341 3.819,-2.868 0.068,-5.196 -3.227,-2.002 -3.225,-1.974 -0.333,-4.72 3.102,-2.947 3.018,-3.333 -1.062,-4.893 -3.6,-1.377 -3.611,-1.411 -1.423,-4.414 1.303,-1.788 1.625,-2.381 1.625,-2.994 0,-1.071 -0.48,-1.311 -3.638,-1.821 -2.639,-0.426 -3.219,-0.685 -3.219,-1.435 0,-0.143 0.482,-1.291 1.072,-2.554 1.154,-2.472 1.315,-3.461 0.663,-4.053 -0.351,-0.317 -0.821,-0.362 -3.336,-0.321 -2.632,0.044 -2.968,0.007 -3.333,-0.36 -0.399,-0.401 -0.395,-0.457 0.228,-3.055 0.763,-3.184 0.766,-3.262 0.139,-3.851 -0.637,-0.599 -1.035,-0.589 -3.959,0.099 -2.131,0.502 -2.483,0.535 -2.967,0.276 l -0.55,-0.294 0.152,-2.939 0.153,-2.938 -0.55,-0.55 c -0.302,-0.302 -0.731,-0.549 -0.954,-0.549 -0.222,0 -1.545,0.525 -2.939,1.166 -2.328,1.072 -2.579,1.143 -3.082,0.88 -0.502,-0.263 -0.585,-0.522 -1.014,-3.141 -0.496,-3.029 -0.802,-3.619 -1.878,-3.619 -0.255,0 -1.519,0.758 -2.81,1.685 -2.1196,1.523 -2.4038,1.667 -2.9322,1.483 -0.4369,-0.153 -0.691,-0.485 -1.0014,-1.312 -0.23,-0.608 -0.67,-1.782 -0.9794,-2.606 -0.6248,-1.664 -0.9733,-2.036 -1.9095,-2.036 -0.5223,0 -0.9954,0.375 -2.6909,2.136 -2.6649,2.768 -2.6749,2.767 -4.6346,-0.447 -0.7835,-1.285 -1.6021,-2.432 -1.8201,-2.548 -0.4902,-0.263 -1.0667,-0.262 -1.5178,0.002 z m 2.4288,9.678 c 2.3214,1.652 1.0869,5.536 -1.7598,5.536 -2.7623,0 -4.1534,-3.327 -2.1807,-5.217 1.113,-1.067 2.7091,-1.196 3.9405,-0.319 z m -2.9189,10.259 c 1.5217,0.579 2.1465,0.231 5.6209,-3.117 l 2.6106,-2.518 1.105,0.147 c 3.4654,0.46 10.3575,3.488 14.3185,6.289 3.639,2.575 8.476,7.821 10.537,11.428 l 0.441,0.772 -1.953,4.4 c -1.075,2.419 -1.953,4.653 -1.953,4.966 0,0.72 0.472,1.859 0.927,2.236 0.191,0.159 2.015,1.037 4.051,1.95 l 3.7,1.662 0.146,0.941 c 0.188,1.226 0.213,4.239 0.042,5.095 l -0.134,0.669 h -2.112 c -2.45,0 -2.261,-0.219 -2.394,2.786 -0.096,2.179 -0.622,3.383 -1.82,4.162 -1.95,1.273 -5.172,1.042 -6.538,-0.468 -0.21,-0.232 -0.618,-1.398 -0.907,-2.592 -0.845,-3.489 -1.98,-5.447 -4.26,-7.353 -0.72,-0.601 -1.309,-1.163 -1.309,-1.248 0,-0.085 0.792,-0.752 1.76,-1.48 3.526,-2.658 5.553,-5.751 5.776,-8.816 0.425,-5.845 -4.232,-11.293 -11.159,-13.059 -1.642,-0.419 -2.3431,-0.432 -22.6604,-0.432 -11.5313,0 -20.9662,-0.075 -20.9662,-0.167 0,-0.216 2.5624,-2.703 4.0721,-3.95 4.1454,-3.428 9.5303,-6.125 15.1071,-7.565 l 1.9286,-0.499 2.7402,2.778 c 1.5077,1.528 2.9852,2.87 3.2826,2.983 z M 49.4116,288.6 c 1.2626,0.827 1.7799,2.904 1.0346,4.152 -1.1531,1.933 -4.0741,2.014 -5.2282,0.146 -1.6785,-2.714 1.5539,-6.028 4.1936,-4.298 z m 74.3804,0.105 c 3.303,2.014 0.743,6.968 -2.792,5.404 -2.361,-1.044 -2.436,-4.271 -0.128,-5.448 0.963,-0.491 2.07,-0.474 2.92,0.044 z m -64.6491,12.331 v 12.321 H 48.2505 l -0.432,-1.874 c -0.8497,-3.692 -1.2073,-7.511 -0.9934,-10.639 l 0.1497,-2.197 3.7446,-1.68 c 2.3495,-1.053 3.8602,-1.855 4.055,-2.154 0.8518,-1.298 0.7705,-2.226 -0.4248,-4.866 l -0.5585,-1.233 h 5.3518 z m 31.3593,-11.785 c 2.3324,0.606 3.5649,1.841 3.5679,3.572 0.002,1.27 -0.6278,2.068 -2.1897,2.773 -1.106,0.5 -1.2817,0.512 -8.2557,0.581 L 76.5,296.245 v -7.317 h 6.3834 c 4.9861,0 6.6545,0.071 7.6188,0.323 z m -2.4067,17.68 c 1.1562,0.322 2.5233,1.326 3.2244,2.37 0.7362,1.097 1.1672,2.523 2.1877,7.248 0.8618,3.994 1.4163,5.3 2.9692,6.999 1.9235,2.105 1.4776,2.023 11.0862,2.023 4.602,0 8.365,0.074 8.365,0.164 0,0.162 -3.169,3.908 -3.305,3.908 -0.04,0 -1.695,-0.346 -3.679,-0.77 -5.602,-1.196 -5.804,-1.056 -7.089,4.948 l -0.827,3.857 -0.746,0.368 c -1.2458,0.614 -5.2938,1.88 -7.3921,2.312 -3.4675,0.713 -7.2412,0.954 -10.558,0.674 -5.6541,-0.479 -13.1414,-2.673 -13.4337,-3.938 -0.0623,-0.268 -0.4389,-2.004 -0.8357,-3.858 -0.3978,-1.854 -0.8809,-3.613 -1.0738,-3.908 -0.9271,-1.414 -1.9024,-1.502 -6.1915,-0.553 -1.6242,0.36 -3.0415,0.653 -3.15,0.653 -0.2039,0 -3.2183,-3.485 -3.2183,-3.72 0,-0.074 7.1598,-0.159 15.9107,-0.189 l 15.9107,-0.054 0.0573,-5.652 c 0.0402,-3.991 -0.0151,-5.74 -0.1878,-5.947 -0.1929,-0.233 -1.2195,-0.294 -4.932,-0.294 H 76.5 v -6.858 l 5.4111,10e-4 c 2.9752,0.001 5.7586,0.099 6.1844,0.216 z m -24.5169,25.704 c 2.5302,1.541 1.3168,5.581 -1.6755,5.578 -3.0686,-0.002 -4.2057,-4.004 -1.591,-5.6 0.8648,-0.527 2.3846,-0.517 3.2665,0.022 z m 46.3314,0.168 c 1.241,0.909 1.654,2.801 0.885,4.06 -2.018,3.31 -7.064,0.679 -5.378,-2.803 0.828,-1.711 3.031,-2.327 4.493,-1.257 z"
         fill="#fcfaff"
         id="path16" /><rect
         x="198"
         y="540"
         width="171"
         height="171"
         rx="20"
         fill="#222222"
         fill-opacity="0.35"
         id="rect17" /><rect
         x="199"
         y="541"
         width="169"
         height="169"
         rx="19"
         stroke="#fcfaff"
         stroke-opacity="0.25"
         stroke-width="2"
         id="rect18" /><path
         fill-rule="evenodd"
         clip-rule="evenodd"
         d="m 231.063,616.931 c -0.244,0 -0.304,-0.123 -0.183,-0.304 l 1.279,-1.645 c 0.12,-0.183 0.426,-0.304 0.669,-0.304 h 21.733 c 0.244,0 0.305,0.183 0.183,0.366 l -1.034,1.583 c -0.122,0.181 -0.426,0.364 -0.609,0.364 z m -9.193,5.6 c -0.243,0 -0.304,-0.121 -0.183,-0.305 l 1.279,-1.643 c 0.122,-0.183 0.426,-0.304 0.67,-0.304 h 27.759 c 0.243,0 0.366,0.183 0.305,0.365 l -0.487,1.461 c -0.061,0.244 -0.305,0.366 -0.548,0.366 z m 14.732,5.601 c -0.244,0 -0.304,-0.183 -0.182,-0.366 l 0.852,-1.522 c 0.122,-0.183 0.365,-0.364 0.609,-0.364 h 12.174 c 0.244,0 0.366,0.182 0.366,0.426 l -0.121,1.46 c 0,0.244 -0.244,0.427 -0.426,0.427 z m 63.19,-12.297 c -3.836,0.974 -6.453,1.705 -10.227,2.678 -0.914,0.244 -0.974,0.304 -1.766,-0.609 -0.913,-1.034 -1.583,-1.704 -2.861,-2.313 -3.836,-1.886 -7.549,-1.339 -11.019,0.914 -4.139,2.678 -6.269,6.635 -6.209,11.565 0.06,4.871 3.409,8.889 8.218,9.559 4.14,0.547 7.61,-0.914 10.349,-4.018 0.548,-0.67 1.035,-1.4 1.644,-2.253 h -11.75 c -1.277,0 -1.582,-0.791 -1.156,-1.826 0.792,-1.887 2.252,-5.053 3.104,-6.636 0.184,-0.365 0.61,-0.974 1.523,-0.974 H 301.8 c -0.12,1.644 -0.12,3.288 -0.364,4.932 -0.67,4.383 -2.314,8.4 -4.992,11.931 -4.384,5.784 -10.105,9.375 -17.351,10.349 -5.965,0.792 -11.505,-0.366 -16.374,-4.018 -4.505,-3.409 -7.062,-7.914 -7.732,-13.514 -0.791,-6.635 1.156,-12.602 5.174,-17.837 4.322,-5.661 10.045,-9.253 17.046,-10.532 5.722,-1.035 11.201,-0.365 16.132,2.983 3.226,2.131 5.539,5.053 7.061,8.583 0.366,0.549 0.123,0.853 -0.609,1.035 z"
         fill="#fcfaff"
         id="path18" /><path
         d="m 319.942,649.5 c -5.54,-0.123 -10.593,-1.705 -14.854,-5.358 -3.592,-3.104 -5.844,-7.062 -6.574,-11.749 -1.096,-6.879 0.79,-12.967 4.931,-18.384 4.443,-5.845 9.8,-8.889 17.045,-10.167 6.209,-1.095 12.054,-0.486 17.35,3.105 4.809,3.287 7.791,7.731 8.583,13.575 1.034,8.218 -1.339,14.915 -7.001,20.638 -4.018,4.078 -8.949,6.635 -14.61,7.791 -1.644,0.305 -3.288,0.366 -4.87,0.549 z m 14.488,-24.595 c -0.06,-0.791 -0.06,-1.4 -0.182,-2.009 -1.095,-6.026 -6.636,-9.435 -12.419,-8.096 -5.662,1.278 -9.314,4.87 -10.653,10.593 -1.096,4.748 1.217,9.557 5.6,11.505 3.349,1.461 6.697,1.278 9.923,-0.365 4.809,-2.496 7.427,-6.392 7.731,-11.628 z"
         fill="#fcfaff"
         id="path19" /><rect
         x="198"
         width="190"
         height="190"
         rx="20"
         fill="#222222"
         fill-opacity="0.35"
         id="rect19"
         y="0" /><rect
         x="199"
         y="1"
         width="188"
         height="188"
         rx="19"
         stroke="#fcfaff"
         stroke-opacity="0.25"
         stroke-width="2"
         id="rect20" /><path
         d="M 224.518,25.4018 V 164.911 H 364.027 V 25.4018 Z m 73.793,118.8762 c -2.059,4.184 -5.99,6.933 -10.544,8.26 -6.999,1.607 -13.693,0.691 -18.673,-2.298 -3.333,-2.045 -5.936,-5.192 -7.702,-8.818 l 10.625,-6.507 c 0.092,0.039 0.371,0.544 0.744,1.195 1.355,2.271 2.524,3.878 4.82,5.006 2.257,0.77 7.211,1.262 9.124,-2.709 1.169,-2.02 0.797,-8.513 0.797,-15.697 -0.001,-11.289 0.052,-22.531 0.052,-33.6921 h 13.068 c 0,12.2771 0.067,23.9041 0,35.8841 0.028,7.344 0.665,13.89 -2.311,19.376 z m 54.212,-3.692 c -4.542,15.538 -29.868,16.042 -39.988,5.777 -2.139,-2.417 -3.479,-3.679 -4.755,-6.468 5.378,-3.094 5.378,-3.094 10.612,-6.122 2.842,4.37 5.471,6.773 10.2,7.756 6.415,0.783 12.869,-1.421 11.421,-8.234 -1.487,-5.565 -13.136,-6.919 -21.063,-12.87 -8.048,-5.405 -9.934,-18.539 -3.321,-26.0433 2.205,-2.7757 5.964,-4.8471 9.908,-5.8426 l 4.116,-0.5324 c 7.903,-0.1596 12.843,1.9275 16.469,5.9766 1.009,1.0223 1.832,2.125 3.372,4.5145 -4.209,2.6832 -4.196,2.6572 -10.226,6.5612 -1.288,-2.774 -3.425,-4.515 -5.684,-5.2722 -3.507,-1.0625 -7.929,0.0927 -8.846,3.7982 -0.318,1.142 -0.253,2.204 0.253,4.09 1.421,3.24 6.189,4.649 10.465,6.614 12.312,4.993 16.469,10.347 17.492,16.72 0.984,5.487 -0.238,9.046 -0.425,9.577 z"
         fill="#fcfaff"
         id="path20" /><rect
         x="520"
         y="218"
         width="171"
         height="171"
         rx="20"
         fill="#222222"
         fill-opacity="0.35"
         id="rect21" /><rect
         x="521"
         y="219"
         width="169"
         height="169"
         rx="19"
         stroke="#fcfaff"
         stroke-opacity="0.25"
         stroke-width="2"
         id="rect22" /><path
         d="m 659.882,273.507 0.301,-0.201 c -0.603,-1.105 -1.507,-2.11 -2.411,-2.612 L 609.257,242.77 c -0.804,-0.502 -1.909,-0.703 -3.114,-0.703 -1.206,0 -2.31,0.301 -3.114,0.703 l -48.214,28.025 c -1.708,1.004 -2.913,3.515 -2.913,5.424 v 55.948 c 0,1.105 0.201,2.311 0.904,3.416 l -0.201,0.1 c 0.502,0.804 1.205,1.507 1.908,1.909 l 48.416,28.024 c 0.803,0.502 1.908,0.703 3.113,0.703 1.206,0 2.311,-0.301 3.114,-0.703 l 48.214,-28.024 c 1.708,-1.005 2.913,-3.516 2.913,-5.425 v -56.049 c 0.101,-0.803 0,-1.707 -0.401,-2.611 z m -53.739,55.245 c 9.14,0 17.176,-5.022 21.395,-12.455 l 12.957,7.634 c -6.83,11.853 -19.687,19.888 -34.352,19.888 -21.898,0 -39.677,-17.779 -39.677,-39.676 0,-21.897 17.779,-39.676 39.677,-39.676 14.765,0 27.623,8.136 34.453,20.089 l -13.058,7.533 c -4.219,-7.533 -12.255,-12.555 -21.395,-12.555 -13.56,0 -24.61,11.049 -24.61,24.609 0,13.56 11.05,24.609 24.61,24.609 z"
         fill="#fcfaff"
         id="path22" /></g></g></svg>
